<svg width="46" height="40" viewBox="0 0 46 40" fill="none" xmlns="http://www.w3.org/2000/svg">
<path d="M43.625 18H6.21969L20.5428 3.448C21.2928 2.686 21.3219 1.42 20.6075 0.619999C19.8941 -0.179001 18.7072 -0.211001 17.9563 0.550999L1.59875 17.171C0.890937 17.927 0.5 18.931 0.5 20C0.5 21.068 0.890937 22.073 1.63156 22.862L17.9572 39.448C18.32 39.817 18.785 40 19.25 40C19.745 40 20.24 39.792 20.6084 39.379C21.3228 38.579 21.2937 37.314 20.5437 36.552L6.16062 22H43.625C44.66 22 45.5 21.104 45.5 20C45.5 18.896 44.66 18 43.625 18Z" fill="#77BB88"/>
</svg>
