<svg width="149" height="35" viewBox="0 0 149 35" fill="none" xmlns="http://www.w3.org/2000/svg">
<g filter="url(#filter0_d)">
<path d="M4 8C4 3.58172 7.58172 0 12 0H137C141.418 0 145 3.58172 145 8V19C145 23.4183 141.418 27 137 27H12C7.58172 27 4 23.4183 4 19V8Z" fill="#77BB88"/>
<path d="M4 8C4 3.58172 7.58172 0 12 0H38V27H12C7.58172 27 4 23.4183 4 19V8Z" fill="#62B076"/>
<g clip-path="url(#clip0)">
<path d="M11.5226 24.5784C11.4154 24.2699 11.6583 23.9703 12.0652 23.9091C13.3986 23.7086 13.459 23.1308 13.2857 21.6522C13.1154 20.1986 12.8823 18.2079 16.3486 17.6356C18.7394 17.2409 20.1607 16.1066 20.7828 15.4838L20.1328 15.0895C19.5519 15.6927 18.1137 16.9031 15.6276 17.3135C12.1613 17.8858 12.3945 19.8766 12.5647 21.3301C12.738 22.8088 12.6776 23.3865 11.3443 23.587C10.9374 23.6482 10.6944 23.9478 10.8016 24.2564C10.8471 24.387 10.9481 24.4984 11.0802 24.5786C11.2248 24.6663 11.4067 24.7159 11.5942 24.7141C11.5637 24.6719 11.5393 24.6265 11.5226 24.5784Z" fill="#56422F"/>
<path d="M22.469 5.88383L22.4729 5.88361L22.473 5.8836C22.5588 5.8797 29.1554 5.57985 28.9876 5.58749C30.0905 5.53734 30.2844 6.41023 30.2887 6.43008L31.341 11.6502C31.3552 11.7306 31.4055 12.2566 30.3802 12.603L20.7242 15.8649L19.6402 15.1622L21.4984 6.86329C21.4984 6.86329 21.4984 6.86326 21.4984 6.8632C21.7051 5.94 22.4124 5.8866 22.469 5.88383Z" fill="#B7D8B7"/>
<path d="M30.2887 6.43028C30.2844 6.41043 30.0905 5.53757 28.9876 5.58769C28.9875 5.5877 28.9874 5.58768 28.9872 5.5877L27.2454 5.66688C24.0409 6.76355 21.8934 9.46654 22.2033 12.3688C22.3075 13.3438 22.6782 14.2382 23.2519 15.0112L30.3802 12.6032C31.4055 12.2568 31.3553 11.7308 31.3411 11.6504L30.2887 6.43028Z" fill="#E9F5E9"/>
<path d="M26.9593 9.1017L30.0558 5.98946C29.9506 5.86679 29.801 5.74623 29.5898 5.66921L26.4824 8.79251L22.1372 5.97591C21.9968 6.04278 21.8361 6.1585 21.7045 6.35813L26.0815 9.19547L19.947 15.3612L20.424 15.6704L26.5584 9.50462L30.9336 12.3408C31.1505 12.1942 31.2557 12.043 31.3049 11.9186L26.9593 9.1017Z" fill="#56422F"/>
</g>
<path d="M64.0156 19H61.6719L57.1094 11.5156V19H54.7656V7.625H57.1094L61.6797 15.125V7.625H64.0156V19ZM65.5625 14.6953C65.5625 13.8568 65.724 13.1094 66.0469 12.4531C66.3698 11.7969 66.8333 11.2891 67.4375 10.9297C68.0469 10.5703 68.7526 10.3906 69.5547 10.3906C70.6953 10.3906 71.625 10.7396 72.3438 11.4375C73.0677 12.1354 73.4714 13.0833 73.5547 14.2812L73.5703 14.8594C73.5703 16.1562 73.2083 17.1979 72.4844 17.9844C71.7604 18.7656 70.7891 19.1562 69.5703 19.1562C68.3516 19.1562 67.3776 18.7656 66.6484 17.9844C65.9245 17.2031 65.5625 16.1406 65.5625 14.7969V14.6953ZM67.8203 14.8594C67.8203 15.6615 67.9714 16.276 68.2734 16.7031C68.5755 17.125 69.0078 17.3359 69.5703 17.3359C70.1172 17.3359 70.5443 17.1276 70.8516 16.7109C71.1589 16.2891 71.3125 15.6172 71.3125 14.6953C71.3125 13.9089 71.1589 13.2995 70.8516 12.8672C70.5443 12.4349 70.112 12.2188 69.5547 12.2188C69.0026 12.2188 68.5755 12.4349 68.2734 12.8672C67.9714 13.2943 67.8203 13.9583 67.8203 14.8594ZM78 16.2422L79.5703 10.5469H81.9297L79.0781 19H76.9219L74.0703 10.5469H76.4297L78 16.2422ZM87.7031 19C87.599 18.7969 87.5234 18.5443 87.4766 18.2422C86.9297 18.8516 86.2188 19.1562 85.3438 19.1562C84.5156 19.1562 83.8281 18.9167 83.2812 18.4375C82.7396 17.9583 82.4688 17.3542 82.4688 16.625C82.4688 15.7292 82.7995 15.0417 83.4609 14.5625C84.1276 14.0833 85.0885 13.8411 86.3438 13.8359H87.3828V13.3516C87.3828 12.9609 87.2812 12.6484 87.0781 12.4141C86.8802 12.1797 86.5651 12.0625 86.1328 12.0625C85.7526 12.0625 85.4531 12.1536 85.2344 12.3359C85.0208 12.5182 84.9141 12.7682 84.9141 13.0859H82.6562C82.6562 12.5964 82.8073 12.1432 83.1094 11.7266C83.4115 11.3099 83.8385 10.9844 84.3906 10.75C84.9427 10.5104 85.5625 10.3906 86.25 10.3906C87.2917 10.3906 88.1172 10.6536 88.7266 11.1797C89.3411 11.7005 89.6484 12.4349 89.6484 13.3828V17.0469C89.6536 17.849 89.7656 18.4557 89.9844 18.8672V19H87.7031ZM85.8359 17.4297C86.1693 17.4297 86.4766 17.3568 86.7578 17.2109C87.0391 17.0599 87.2474 16.8594 87.3828 16.6094V15.1562H86.5391C85.4089 15.1562 84.8073 15.5469 84.7344 16.3281L84.7266 16.4609C84.7266 16.7422 84.8255 16.974 85.0234 17.1562C85.2214 17.3385 85.4922 17.4297 85.8359 17.4297ZM97.75 19H95.4844V10.5469H97.75V19ZM95.3516 8.35938C95.3516 8.02083 95.4635 7.74219 95.6875 7.52344C95.9167 7.30469 96.2266 7.19531 96.6172 7.19531C97.0026 7.19531 97.3099 7.30469 97.5391 7.52344C97.7682 7.74219 97.8828 8.02083 97.8828 8.35938C97.8828 8.70312 97.7656 8.98438 97.5312 9.20312C97.3021 9.42188 96.9974 9.53125 96.6172 9.53125C96.237 9.53125 95.9297 9.42188 95.6953 9.20312C95.4661 8.98438 95.3516 8.70312 95.3516 8.35938ZM99.2656 14.7109C99.2656 13.3932 99.5599 12.3438 100.148 11.5625C100.742 10.7812 101.552 10.3906 102.578 10.3906C103.401 10.3906 104.081 10.6979 104.617 11.3125V7H106.883V19H104.844L104.734 18.1016C104.172 18.8047 103.448 19.1562 102.562 19.1562C101.568 19.1562 100.768 18.7656 100.164 17.9844C99.5651 17.1979 99.2656 16.1068 99.2656 14.7109ZM101.523 14.875C101.523 15.6667 101.661 16.2734 101.938 16.6953C102.214 17.1172 102.615 17.3281 103.141 17.3281C103.839 17.3281 104.331 17.0339 104.617 16.4453V13.1094C104.336 12.5208 103.849 12.2266 103.156 12.2266C102.068 12.2266 101.523 13.1094 101.523 14.875ZM112.523 19.1562C111.284 19.1562 110.273 18.776 109.492 18.0156C108.716 17.2552 108.328 16.2422 108.328 14.9766V14.7578C108.328 13.9089 108.492 13.151 108.82 12.4844C109.148 11.8125 109.612 11.2969 110.211 10.9375C110.815 10.5729 111.503 10.3906 112.273 10.3906C113.43 10.3906 114.339 10.7552 115 11.4844C115.667 12.2135 116 13.2474 116 14.5859V15.5078H110.617C110.69 16.0599 110.909 16.5026 111.273 16.8359C111.643 17.1693 112.109 17.3359 112.672 17.3359C113.542 17.3359 114.221 17.0208 114.711 16.3906L115.82 17.6328C115.482 18.112 115.023 18.487 114.445 18.7578C113.867 19.0234 113.227 19.1562 112.523 19.1562ZM112.266 12.2188C111.818 12.2188 111.453 12.3698 111.172 12.6719C110.896 12.974 110.719 13.4062 110.641 13.9688H113.781V13.7891C113.771 13.2891 113.635 12.9036 113.375 12.6328C113.115 12.3568 112.745 12.2188 112.266 12.2188ZM119.672 19H117.406V10.5469H119.672V19ZM117.273 8.35938C117.273 8.02083 117.385 7.74219 117.609 7.52344C117.839 7.30469 118.148 7.19531 118.539 7.19531C118.924 7.19531 119.232 7.30469 119.461 7.52344C119.69 7.74219 119.805 8.02083 119.805 8.35938C119.805 8.70312 119.688 8.98438 119.453 9.20312C119.224 9.42188 118.919 9.53125 118.539 9.53125C118.159 9.53125 117.852 9.42188 117.617 9.20312C117.388 8.98438 117.273 8.70312 117.273 8.35938ZM126.438 19C126.333 18.7969 126.258 18.5443 126.211 18.2422C125.664 18.8516 124.953 19.1562 124.078 19.1562C123.25 19.1562 122.562 18.9167 122.016 18.4375C121.474 17.9583 121.203 17.3542 121.203 16.625C121.203 15.7292 121.534 15.0417 122.195 14.5625C122.862 14.0833 123.823 13.8411 125.078 13.8359H126.117V13.3516C126.117 12.9609 126.016 12.6484 125.812 12.4141C125.615 12.1797 125.299 12.0625 124.867 12.0625C124.487 12.0625 124.188 12.1536 123.969 12.3359C123.755 12.5182 123.648 12.7682 123.648 13.0859H121.391C121.391 12.5964 121.542 12.1432 121.844 11.7266C122.146 11.3099 122.573 10.9844 123.125 10.75C123.677 10.5104 124.297 10.3906 124.984 10.3906C126.026 10.3906 126.852 10.6536 127.461 11.1797C128.076 11.7005 128.383 12.4349 128.383 13.3828V17.0469C128.388 17.849 128.5 18.4557 128.719 18.8672V19H126.438ZM124.57 17.4297C124.904 17.4297 125.211 17.3568 125.492 17.2109C125.773 17.0599 125.982 16.8594 126.117 16.6094V15.1562H125.273C124.143 15.1562 123.542 15.5469 123.469 16.3281L123.461 16.4609C123.461 16.7422 123.56 16.974 123.758 17.1562C123.956 17.3385 124.227 17.4297 124.57 17.4297Z" fill="#F3EEEE"/>
</g>
<defs>
<filter id="filter0_d" x="0" y="0" width="149" height="35" filterUnits="userSpaceOnUse" color-interpolation-filters="sRGB">
<feFlood flood-opacity="0" result="BackgroundImageFix"/>
<feColorMatrix in="SourceAlpha" type="matrix" values="0 0 0 0 0 0 0 0 0 0 0 0 0 0 0 0 0 0 127 0"/>
<feOffset dy="4"/>
<feGaussianBlur stdDeviation="2"/>
<feColorMatrix type="matrix" values="0 0 0 0 0 0 0 0 0 0 0 0 0 0 0 0 0 0 0.25 0"/>
<feBlend mode="normal" in2="BackgroundImageFix" result="effect1_dropShadow"/>
<feBlend mode="normal" in="SourceGraphic" in2="effect1_dropShadow" result="shape"/>
</filter>
<clipPath id="clip0">
<rect width="20.7488" height="16.8316" fill="white" transform="translate(10 7.20364) rotate(-6.09665)"/>
</clipPath>
</defs>
</svg>
