<svg width="328" height="261" viewBox="0 0 328 261" fill="none" xmlns="http://www.w3.org/2000/svg">
<g clip-path="url(#clip0)">
<path d="M315.727 64.1101L163.913 184.925L12.0977 64.1101C9.2655 61.933 4.75146 61.9958 2.0155 64.2495C-0.652952 66.4484 -0.652952 69.9339 2.0155 72.1323L158.878 196.953C161.663 199.168 166.176 199.168 168.961 196.953L325.824 72.1323C328.656 69.9552 328.734 66.3638 325.999 64.1096C323.263 61.8559 318.749 61.7936 315.917 63.9702C315.857 64.016 315.799 64.0622 315.741 64.1096L315.727 64.1101Z" fill="#FFC107"/>
<path d="M163.913 198.622C162.02 198.624 160.204 198.029 158.865 196.965L2.00159 72.144C-0.734375 69.8903 -0.655498 66.2983 2.17672 64.1212C4.94009 61.9979 9.32044 61.9979 12.0831 64.1212L163.912 184.925L315.727 64.1101C318.463 61.8564 322.976 61.7941 325.809 63.9707C328.641 66.1478 328.72 69.7392 325.984 71.9934C325.927 72.0408 325.869 72.0871 325.809 72.1328L168.947 196.954C167.613 198.018 165.802 198.618 163.913 198.622Z" fill="#77BB88"/>
</g>
<defs>
<clipPath id="clip0">
<rect width="328" height="261" fill="white"/>
</clipPath>
</defs>
</svg>
