<svg id="Capa_1" enable-background="new 0 0 497.344 497.344" height="512" viewBox="0 0 497.344 497.344" width="512" xmlns="http://www.w3.org/2000/svg"><g><path d="m346.292 230.13v21.19c0 5.32-1.85 10.48-5.23 14.58l-25 30.4v129.797c0 4.359-3.534 7.893-7.893 7.893h-118.993c-4.359 0-7.893-3.534-7.893-7.893v-129.797l-25-30.4c-3.38-4.1-5.23-9.26-5.23-14.58v-21.19-38.34l115.21-1.33c-5.59 0-10.66 2.27-14.33 5.94-3.66 3.67-5.93 8.73-5.93 14.33 0 11.19 9.07 20.27 20.26 20.27z" fill="#ffe5c2"/><g><path d="m58.021 292.369h-44.533c-7.449 0-13.488-6.038-13.488-13.487v-153.356c0-7.449 6.039-13.488 13.488-13.488h44.533z" fill="#b5adb6"/><path d="m439.324 292.369h44.533c7.449 0 13.488-6.039 13.488-13.488v-153.355c0-7.449-6.039-13.488-13.488-13.488h-44.533z" fill="#b5adb6"/><g><path d="m63.817 230.128v-55.848h371.694v56.72z" fill="#cbc4cc"/></g><g id="XMLID_421_"><g fill="#fed2a4"><path d="m247.412 142.52v30.11c0 11.9-9.65 21.55-21.56 21.55-11.9 0-21.55-9.65-21.55-21.55v-30.11c0-11.9 9.65-21.55 21.55-21.55 5.96 0 11.34 2.41 15.25 6.31 3.9 3.9 6.31 9.29 6.31 15.24z"/><path d="m291.372 135.544v35.131c0 13.884-10.035 25.143-22.42 25.143-12.375 0-22.41-11.259-22.41-25.143v-35.131c0-13.884 10.035-25.143 22.41-25.143 6.198 0 11.792 2.812 15.858 7.362 4.056 4.55 6.562 10.839 6.562 17.781z"/><path d="m333.613 145.54v30.11c0 11.9-9.65 21.55-21.56 21.55-11.9 0-21.55-9.65-21.55-21.55v-30.11c0-11.9 9.65-21.55 21.55-21.55 5.96 0 11.34 2.41 15.25 6.31 3.901 3.9 6.31 9.29 6.31 15.24z"/><path d="m204.302 148.56v24.07c0 11.9-9.64 21.55-21.55 21.55-11.9 0-21.55-9.65-21.55-21.55v-24.07c0-11.9 9.65-21.55 21.55-21.55 5.96 0 11.34 2.41 15.24 6.31s6.31 9.29 6.31 15.24z"/></g></g><g id="XMLID_422_"><g fill="#ffbd86"><path d="m221.812 172.63v-30.11c0-8.782 5.283-16.332 12.82-19.69-2.678-1.192-5.655-1.86-8.78-1.86-11.9 0-21.55 9.65-21.55 21.55v30.11c0 11.9 9.65 21.55 21.55 21.55 3.122 0 6.119-.677 8.797-1.869-7.535-3.358-12.837-10.9-12.837-19.681z"/><path d="m264.053 170.675v-28.084-7.047c0-10.401 5.632-19.328 13.659-23.153-2.69-1.281-5.649-1.99-8.76-1.99-12.375 0-22.41 11.259-22.41 25.144v35.131c0 13.884 10.035 25.143 22.41 25.143 3.108 0 6.068-.71 8.758-1.991-8.026-3.827-13.657-12.753-13.657-23.153z"/><path d="m308.014 175.65v-30.11c0-8.782 5.293-16.328 12.829-19.686-2.678-1.192-5.665-1.865-8.789-1.865-11.9 0-21.55 9.65-21.55 21.55v30.11c0 11.9 9.65 21.55 21.55 21.55 3.122 0 6.08-.677 8.758-1.869-7.536-3.357-12.798-10.899-12.798-19.68z"/><path d="m178.712 172.63v-24.07c0-8.781 5.285-16.331 12.821-19.688-2.676-1.192-5.656-1.862-8.781-1.862-11.9 0-21.55 9.65-21.55 21.55v24.07c0 11.9 9.65 21.55 21.55 21.55 3.122 0 6.112-.674 8.789-1.867-7.534-3.357-12.829-10.902-12.829-19.683z"/></g></g><g id="XMLID_420_"><g><path d="m346.292 206v24.791l-80.03.209c-11.19 0-20.26-9.08-20.26-20.27 0-5.6 2.27-10.66 5.93-14.33 3.67-3.67 8.74-5.94 14.33-5.94h64.49c8.58 0 15.54 6.96 15.54 15.54z" fill="#ffe5c2"/></g></g></g><g fill="#a79ba7"><path d="m89.139 341.053h-22.905c-11.716 0-21.214-9.498-21.214-21.214v-235.271c0-11.716 9.498-21.214 21.214-21.214h22.905c11.716 0 21.214 9.498 21.214 21.214v235.272c-.001 11.716-9.498 21.213-21.214 21.213z"/><path d="m408.206 341.053h22.905c11.716 0 21.214-9.498 21.214-21.214v-235.271c0-11.716-9.498-21.214-21.214-21.214h-22.905c-11.716 0-21.214 9.498-21.214 21.214v235.272c0 11.716 9.498 21.213 21.214 21.213z"/></g></g></svg>