<svg width="151" height="156" viewBox="0 0 151 156" fill="none" xmlns="http://www.w3.org/2000/svg">
<g clip-path="url(#clip0)">
<path d="M45.6792 25.6958V25.0383C45.6792 22.4326 43.6348 20.3205 41.1127 20.3205H32.5024C29.9803 20.3205 27.9359 22.4326 27.9359 25.0383V25.3631L45.6792 25.6958Z" fill="#EDC963"/>
<path d="M123.064 25.3631V25.0383C123.064 22.4326 121.02 20.3205 118.498 20.3205H109.887C107.365 20.3205 105.321 22.4326 105.321 25.0383V25.6958L123.064 25.3631Z" fill="#EDC963"/>
<path d="M123.064 31.0245V25.3631C120.421 24.4308 117.587 23.9216 114.638 23.9216C111.354 23.9216 108.214 24.5502 105.321 25.6955V31.3569L123.064 31.0245Z" fill="#E7B93E"/>
<path d="M36.3621 29.583C39.6457 29.583 42.7864 30.2116 45.6792 31.3572V25.0383C45.6792 22.4326 43.6348 20.3205 41.1127 20.3205H32.5024C29.9803 20.3205 27.9359 22.4326 27.9359 25.0383V31.0245C30.5792 30.0921 33.4126 29.583 36.3621 29.583Z" fill="#EDC963"/>
<path d="M45.6792 31.3569V25.6958C42.7864 24.5501 39.646 23.9219 36.3621 23.9219C33.4126 23.9219 30.5792 24.431 27.9359 25.3634V31.0247L45.6792 31.3569Z" fill="#E7B93E"/>
<path d="M9.97218 130.935C23.6492 137.201 30.3413 127.809 33.3338 118.643L40.5683 96.3885C40.5686 96.3885 40.5689 96.3888 40.5691 96.3891L40.5689 96.3888L42.1455 94.3693C42.1455 94.3693 46.6077 96.8641 50.3986 96.8641C54.9195 96.8641 59.018 95.0064 62.0256 91.9931C62.3043 91.714 62.6812 91.5644 63.0693 91.5644H87.9309C88.3191 91.5644 88.696 91.714 88.9747 91.9931C91.9826 95.0064 96.0811 96.8641 100.602 96.8641C104.393 96.8641 108.855 94.3693 108.855 94.3693L110.432 96.3885L117.662 118.631C120.649 127.806 132.374 135.181 141.028 131.47C146.261 129.225 150.765 122.47 150.765 116.14L140.482 52.8739L140.475 52.8794C138.75 39.7248 127.844 29.583 114.638 29.583C107.183 29.583 100.466 32.8185 95.7142 37.9997H55.2858C50.5343 32.8185 43.8165 29.583 36.3621 29.583C23.1561 29.583 12.2499 39.7248 10.5249 52.8794L10.5181 52.8739L0.224426 116.202L0.234749 116.139C-9.26852e-06 123.935 4.7382 128.691 9.97218 130.935Z" fill="#454D58"/>
<path d="M9.97217 128.736C4.73819 126.492 1.15519 121.662 0.234738 116.139L0.224415 116.202C-1.02222 123.872 3.01909 131.416 9.97188 134.397C18.6275 138.109 28.5151 133.465 31.4988 124.287L33.3338 118.642C30.3412 127.809 18.6225 132.445 9.97217 128.736Z" fill="#3C434C"/>
<path d="M150.765 116.14C149.845 121.662 146.262 126.492 141.028 128.736C132.374 132.447 120.649 127.806 117.662 118.631L119.501 124.287C122.485 133.466 132.372 138.109 141.028 134.398C147.98 131.416 152.022 123.872 150.775 116.203L150.765 116.14Z" fill="#3C434C"/>
<path d="M109.247 92.7429C108.926 91.7557 107.779 91.356 106.947 91.9446C105.066 93.2758 103.488 94.0333 100.602 94.0333C96.0811 94.0333 91.9826 92.1756 88.975 89.1622C88.6963 88.8831 88.3194 88.7332 87.9312 88.7332H63.0696C62.6815 88.7332 62.3046 88.8828 62.0259 89.1622C59.018 92.1756 54.9195 94.0333 50.3986 94.0333C47.5128 94.0333 45.9344 93.2758 44.0539 91.9446C43.2223 91.356 42.0753 91.7557 41.7541 92.7429L40.5688 96.3885C43.3275 98.4658 46.7233 99.6946 50.3983 99.6946C55.1297 99.6946 59.3987 97.6596 62.4388 94.3946H88.5612C91.6012 97.6596 95.8702 99.6946 100.602 99.6946C104.277 99.6946 107.673 98.4658 110.432 96.3882L109.247 92.7429Z" fill="#3C434C"/>
<path d="M44.3627 79.8007C44.3627 82.6075 47.9923 87.1927 50.9731 87.1927C53.9539 87.1927 57.5835 82.5858 57.5835 79.8007C56.5079 77.1231 53.9539 75.2392 50.9731 75.2392C47.9923 75.2392 45.438 77.1231 44.3627 79.8007Z" fill="#DAD8DB"/>
<path d="M44.1902 52.1399H41.3899V49.2472C41.3899 46.4831 39.2211 44.2424 36.5455 44.2424C33.87 44.2424 31.7011 46.4831 31.7011 49.2472V52.1399H28.9012C26.2256 52.1399 24.0568 54.3806 24.0568 57.1447C24.0568 59.9089 26.2256 62.1495 28.9012 62.1495H31.7011V65.0422C31.7011 67.8064 33.87 70.047 36.5455 70.047C39.2211 70.047 41.3899 67.8064 41.3899 65.0422V62.1495H44.1902C46.8657 62.1495 49.0346 59.9089 49.0346 57.1447C49.0343 54.3806 46.8654 52.1399 44.1902 52.1399Z" fill="#B3E59F"/>
<path d="M44.1902 52.1399H41.3899V49.2472C41.3899 46.4831 39.2211 44.2424 36.5455 44.2424C33.87 44.2424 31.7011 46.4831 31.7011 49.2472V52.1399H28.9012C26.2256 52.1399 24.0568 54.3806 24.0568 57.1447C24.0568 59.9089 26.2256 62.1495 28.9012 62.1495H31.7011V65.0422C31.7011 67.8064 33.87 70.047 36.5455 70.047C39.2211 70.047 41.3899 67.8064 41.3899 65.0422V62.1495H44.1902C46.8657 62.1495 49.0346 59.9089 49.0346 57.1447C49.0343 54.3806 46.8654 52.1399 44.1902 52.1399Z" fill="#DAD8DB"/>
<path d="M116.018 41.0209C113.607 41.0209 111.634 43.0593 111.634 45.5507C111.634 48.0422 113.607 50.0805 116.018 50.0805C118.43 50.0805 120.403 48.0422 120.403 45.5507C120.403 43.0593 118.43 41.0209 116.018 41.0209Z" fill="#C4DBF9"/>
<path d="M116.018 41.0209C113.607 41.0209 111.634 43.0593 111.634 45.5507C111.634 48.0422 113.607 50.0805 116.018 50.0805C118.43 50.0805 120.403 48.0422 120.403 45.5507C120.403 43.0593 118.43 41.0209 116.018 41.0209Z" fill="#B3E59F"/>
<path d="M116.018 64.2089C113.607 64.2089 111.634 66.2473 111.634 68.7387C111.634 71.2301 113.607 73.2685 116.018 73.2685C118.43 73.2685 120.403 71.2301 120.403 68.7387C120.403 66.2473 118.43 64.2089 116.018 64.2089Z" fill="#BED8FB"/>
<path d="M131.625 57.1447C131.625 54.6533 129.652 52.6149 127.24 52.6149C124.829 52.6149 122.856 54.6533 122.856 57.1447C122.856 59.6361 124.829 61.6745 127.24 61.6745C129.652 61.6742 131.625 59.6358 131.625 57.1447Z" fill="#EDC963"/>
<path d="M109.18 57.1447C109.18 54.6533 107.207 52.6149 104.796 52.6149C102.384 52.6149 100.411 54.6533 100.411 57.1447C100.411 59.6361 102.384 61.6745 104.796 61.6745C107.207 61.6742 109.18 59.6358 109.18 57.1447Z" fill="#DF667C"/>
<path d="M61.3744 45.6544H89.6253C92.4984 45.6544 95.5408 40.7696 95.5408 37.9997H55.4589C55.6656 40.7696 58.5013 45.6544 61.3744 45.6544Z" fill="#A6AEC4"/>
<path d="M50.9731 84.3618C47.9923 84.3618 45.438 82.4779 44.3627 79.8007C44.0124 80.6727 43.8183 81.6285 43.8183 82.6312C43.8183 86.7137 47.0217 90.0232 50.9734 90.0232C54.9251 90.0232 58.1285 86.7137 58.1285 82.6312C58.1285 81.6285 57.9341 80.6727 57.5841 79.8007C56.5082 82.4782 53.9539 84.3618 50.9731 84.3618Z" fill="#C8C5C9"/>
<path d="M93.4165 79.8007C93.4165 82.6075 97.0461 87.1927 100.027 87.1927C103.008 87.1927 106.638 82.5858 106.638 79.8007C105.562 77.1231 103.008 75.2392 100.027 75.2392C97.0461 75.2392 94.4918 77.1231 93.4165 79.8007Z" fill="#DAD8DB"/>
<path d="M100.027 84.3618C97.0461 84.3618 94.4918 82.4779 93.4162 79.8007C93.0658 80.6727 92.8718 81.6285 92.8718 82.6312C92.8718 86.7137 96.0752 90.0232 100.027 90.0232C103.979 90.0232 107.182 86.7137 107.182 82.6312C107.182 81.6285 106.988 80.6727 106.638 79.8007C105.562 82.4782 103.008 84.3618 100.027 84.3618Z" fill="#C8C5C9"/>
<path d="M89.6255 42.8238H61.3747C58.5016 42.8238 56.0994 40.7653 55.4592 37.9997H55.286V42.1946C55.286 45.6687 58.012 48.4849 61.3747 48.4849H89.6255C92.9882 48.4849 95.7142 45.6687 95.7142 42.1946V37.9997H95.5411C94.9008 40.7653 92.4987 42.8238 89.6255 42.8238Z" fill="#959DB0"/>
</g>
<defs>
<clipPath id="clip0">
<rect width="151" height="156" fill="white"/>
</clipPath>
</defs>
</svg>
