<svg width="142" height="155" viewBox="0 0 142 155" fill="none" xmlns="http://www.w3.org/2000/svg">
<path d="M57.6875 99.2969H84.3125C93.7277 99.2969 102.757 103.379 109.415 110.646C116.072 117.914 119.812 127.77 119.812 138.047V147.734H22.1875V138.047C22.1875 127.77 25.9277 117.914 32.5852 110.646C39.2428 103.379 48.2723 99.2969 57.6875 99.2969Z" fill="#6ED2F0"/>
<path d="M44.375 106.562H66.5625V116.25C66.5625 118.819 65.6275 121.283 63.9631 123.1C62.2987 124.917 60.0413 125.938 57.6875 125.938H53.25C50.8962 125.938 48.6388 124.917 46.9744 123.1C45.31 121.283 44.375 118.819 44.375 116.25V106.562Z" fill="#60B8D1"/>
<path d="M75.4375 106.562H97.625V116.25C97.625 118.819 96.69 121.283 95.0256 123.1C93.3612 124.917 91.1038 125.938 88.75 125.938H84.3125C81.9587 125.938 79.7013 124.917 78.0369 123.1C76.3725 121.283 75.4375 118.819 75.4375 116.25V106.562Z" fill="#60B8D1"/>
<path d="M71 138.047C73.4508 138.047 75.4375 135.878 75.4375 133.203C75.4375 130.528 73.4508 128.359 71 128.359C68.5492 128.359 66.5625 130.528 66.5625 133.203C66.5625 135.878 68.5492 138.047 71 138.047Z" fill="#E9EEF2"/>
<path d="M22.1875 84.7656C30.7652 84.7656 37.7188 77.1755 37.7188 67.8125C37.7188 58.4495 30.7652 50.8594 22.1875 50.8594C13.6098 50.8594 6.65625 58.4495 6.65625 67.8125C6.65625 77.1755 13.6098 84.7656 22.1875 84.7656Z" fill="#F0C6A4"/>
<path d="M119.812 84.7656C128.39 84.7656 135.344 77.1755 135.344 67.8125C135.344 58.4495 128.39 50.8594 119.812 50.8594C111.235 50.8594 104.281 58.4495 104.281 67.8125C104.281 77.1755 111.235 84.7656 119.812 84.7656Z" fill="#F0C6A4"/>
<path d="M24.4062 67.8125H15.5312C14.9428 67.8125 14.3785 67.5573 13.9624 67.1032C13.5463 66.649 13.3125 66.0329 13.3125 65.3906C13.3125 64.7483 13.5463 64.1323 13.9624 63.6781C14.3785 63.2239 14.9428 62.9688 15.5312 62.9688H24.4062C24.9947 62.9688 25.559 63.2239 25.9751 63.6781C26.3912 64.1323 26.625 64.7483 26.625 65.3906C26.625 66.0329 26.3912 66.649 25.9751 67.1032C25.559 67.5573 24.9947 67.8125 24.4062 67.8125Z" fill="#C2A186"/>
<path d="M126.469 67.8125H117.594C117.005 67.8125 116.441 67.5573 116.025 67.1032C115.609 66.649 115.375 66.0329 115.375 65.3906C115.375 64.7483 115.609 64.1323 116.025 63.6781C116.441 63.2239 117.005 62.9688 117.594 62.9688H126.469C127.057 62.9688 127.622 63.2239 128.038 63.6781C128.454 64.1323 128.688 64.7483 128.688 65.3906C128.688 66.0329 128.454 66.649 128.038 67.1032C127.622 67.5573 127.057 67.8125 126.469 67.8125Z" fill="#C2A186"/>
<path d="M19.9688 75.0781C19.5299 75.0781 19.1009 74.9361 18.7361 74.67C18.3712 74.4039 18.0868 74.0256 17.9188 73.5831C17.7509 73.1405 17.707 72.6536 17.7926 72.1837C17.8782 71.7139 18.0895 71.2824 18.3998 70.9437L22.8373 66.0999C23.0434 65.875 23.288 65.6966 23.5572 65.5749C23.8264 65.4532 24.1149 65.3906 24.4063 65.3906C24.6976 65.3906 24.9862 65.4532 25.2554 65.5749C25.5246 65.6966 25.7692 65.875 25.9752 66.0999C26.1812 66.3248 26.3447 66.5918 26.4562 66.8857C26.5677 67.1795 26.6251 67.4945 26.6251 67.8125C26.6251 68.1306 26.5677 68.4455 26.4562 68.7393C26.3447 69.0332 26.1812 69.3002 25.9752 69.5251L21.5377 74.3688C21.3319 74.594 21.0873 74.7726 20.8181 74.8944C20.5488 75.0161 20.2602 75.0785 19.9688 75.0781Z" fill="#C2A186"/>
<path d="M122.031 75.0781C121.74 75.0785 121.451 75.0161 121.182 74.8944C120.913 74.7726 120.668 74.594 120.462 74.3688L116.025 69.5251C115.609 69.0709 115.375 68.4548 115.375 67.8125C115.375 67.1702 115.609 66.5541 116.025 66.0999C116.441 65.6457 117.005 65.3906 117.594 65.3906C118.182 65.3906 118.747 65.6457 119.163 66.0999L123.6 70.9437C123.91 71.2824 124.122 71.7139 124.207 72.1837C124.293 72.6535 124.249 73.1405 124.081 73.5831C123.913 74.0256 123.629 74.4039 123.264 74.67C122.899 74.9361 122.47 75.0781 122.031 75.0781Z" fill="#C2A186"/>
<path d="M71 118.672C96.733 118.672 117.594 95.9014 117.594 67.8125C117.594 39.7236 96.733 16.9531 71 16.9531C45.267 16.9531 24.4062 39.7236 24.4062 67.8125C24.4062 95.9014 45.267 118.672 71 118.672Z" fill="#F7CCA9"/>
<path d="M51.0312 75.0781C53.482 75.0781 55.4688 72.9095 55.4688 70.2344C55.4688 67.5592 53.482 65.3906 51.0312 65.3906C48.5805 65.3906 46.5938 67.5592 46.5938 70.2344C46.5938 72.9095 48.5805 75.0781 51.0312 75.0781Z" fill="#6A7073"/>
<path d="M90.9688 75.0781C93.4195 75.0781 95.4062 72.9095 95.4062 70.2344C95.4062 67.5592 93.4195 65.3906 90.9688 65.3906C88.518 65.3906 86.5312 67.5592 86.5312 70.2344C86.5312 72.9095 88.518 75.0781 90.9688 75.0781Z" fill="#6A7073"/>
<path d="M57.6875 21.7969C57.0991 21.7969 56.5347 21.5417 56.1186 21.0875C55.7025 20.6333 55.4688 20.0173 55.4688 19.375V9.6875C55.4688 9.04518 55.7025 8.42917 56.1186 7.97498C56.5347 7.52079 57.0991 7.26563 57.6875 7.26562C58.2759 7.26563 58.8403 7.52079 59.2564 7.97498C59.6725 8.42917 59.9062 9.04518 59.9062 9.6875V19.375C59.9062 20.0173 59.6725 20.6333 59.2564 21.0875C58.8403 21.5417 58.2759 21.7969 57.6875 21.7969Z" fill="#FFB632"/>
<path d="M62.125 31.4844C61.5366 31.4844 60.9722 31.2292 60.5561 30.775C60.14 30.3208 59.9062 29.7048 59.9062 29.0625V19.375C59.9062 18.7327 60.14 18.1167 60.5561 17.6625C60.9722 17.2083 61.5366 16.9531 62.125 16.9531C62.7134 16.9531 63.2778 17.2083 63.6939 17.6625C64.11 18.1167 64.3438 18.7327 64.3438 19.375V29.0625C64.3438 29.7048 64.11 30.3208 63.6939 30.775C63.2778 31.2292 62.7134 31.4844 62.125 31.4844Z" fill="#FFB632"/>
<path d="M71 31.4844C70.4116 31.4844 69.8472 31.2292 69.4311 30.775C69.015 30.3208 68.7812 29.7048 68.7812 29.0625V19.375C68.7812 18.7327 69.015 18.1167 69.4311 17.6625C69.8472 17.2083 70.4116 16.9531 71 16.9531C71.5884 16.9531 72.1528 17.2083 72.5689 17.6625C72.985 18.1167 73.2188 18.7327 73.2188 19.375V29.0625C73.2188 29.7048 72.985 30.3208 72.5689 30.775C72.1528 31.2292 71.5884 31.4844 71 31.4844Z" fill="#FFB632"/>
<path d="M79.875 31.4844C79.2866 31.4844 78.7222 31.2292 78.3061 30.775C77.89 30.3208 77.6562 29.7048 77.6562 29.0625V19.375C77.6562 18.7327 77.89 18.1167 78.3061 17.6625C78.7222 17.2083 79.2866 16.9531 79.875 16.9531C80.4634 16.9531 81.0278 17.2083 81.4439 17.6625C81.86 18.1167 82.0938 18.7327 82.0938 19.375V29.0625C82.0938 29.7048 81.86 30.3208 81.4439 30.775C81.0278 31.2292 80.4634 31.4844 79.875 31.4844Z" fill="#FFB632"/>
<path d="M66.5625 21.7969C65.9741 21.7969 65.4097 21.5417 64.9936 21.0875C64.5775 20.6333 64.3438 20.0173 64.3438 19.375V9.6875C64.3438 9.04518 64.5775 8.42917 64.9936 7.97498C65.4097 7.52079 65.9741 7.26563 66.5625 7.26562C67.1509 7.26563 67.7153 7.52079 68.1314 7.97498C68.5475 8.42917 68.7812 9.04518 68.7812 9.6875V19.375C68.7812 20.0173 68.5475 20.6333 68.1314 21.0875C67.7153 21.5417 67.1509 21.7969 66.5625 21.7969Z" fill="#FFB632"/>
<path d="M75.4375 21.7969C74.8491 21.7969 74.2847 21.5417 73.8686 21.0875C73.4525 20.6333 73.2188 20.0173 73.2188 19.375V9.6875C73.2188 9.04518 73.4525 8.42917 73.8686 7.97498C74.2847 7.52079 74.8491 7.26563 75.4375 7.26562C76.0259 7.26563 76.5903 7.52079 77.0064 7.97498C77.4225 8.42917 77.6562 9.04518 77.6562 9.6875V19.375C77.6562 20.0173 77.4225 20.6333 77.0064 21.0875C76.5903 21.5417 76.0259 21.7969 75.4375 21.7969Z" fill="#FFB632"/>
<path d="M84.3125 21.7969C83.7241 21.7969 83.1597 21.5417 82.7436 21.0875C82.3275 20.6333 82.0938 20.0173 82.0938 19.375V9.6875C82.0938 9.04518 82.3275 8.42917 82.7436 7.97498C83.1597 7.52079 83.7241 7.26563 84.3125 7.26562C84.9009 7.26563 85.4653 7.52079 85.8814 7.97498C86.2975 8.42917 86.5312 9.04518 86.5312 9.6875V19.375C86.5312 20.0173 86.2975 20.6333 85.8814 21.0875C85.4653 21.5417 84.9009 21.7969 84.3125 21.7969Z" fill="#FFB632"/>
<path d="M39.9375 89.6094C44.839 89.6094 48.8125 85.2721 48.8125 79.9219C48.8125 74.5716 44.839 70.2344 39.9375 70.2344C35.036 70.2344 31.0625 74.5716 31.0625 79.9219C31.0625 85.2721 35.036 89.6094 39.9375 89.6094Z" fill="#FF9494"/>
<path d="M102.062 89.6094C106.964 89.6094 110.938 85.2721 110.938 79.9219C110.938 74.5716 106.964 70.2344 102.062 70.2344C97.161 70.2344 93.1875 74.5716 93.1875 79.9219C93.1875 85.2721 97.161 89.6094 102.062 89.6094Z" fill="#FF9494"/>
<path d="M71 89.6094C68.647 89.6065 66.3912 88.5849 64.7273 86.7688C63.0635 84.9526 62.1276 82.4903 62.125 79.9219C62.125 79.2796 62.3588 78.6635 62.7749 78.2093C63.191 77.7552 63.7553 77.5 64.3438 77.5C64.9322 77.5 65.4965 77.7552 65.9126 78.2093C66.3287 78.6635 66.5625 79.2796 66.5625 79.9219C66.5625 81.2065 67.03 82.4385 67.8622 83.3469C68.6944 84.2553 69.8231 84.7656 71 84.7656C72.1769 84.7656 73.3056 84.2553 74.1378 83.3469C74.97 82.4385 75.4375 81.2065 75.4375 79.9219C75.4375 79.2796 75.6713 78.6635 76.0874 78.2093C76.5035 77.7552 77.0678 77.5 77.6562 77.5C78.2447 77.5 78.809 77.7552 79.2251 78.2093C79.6412 78.6635 79.875 79.2796 79.875 79.9219C79.8724 82.4903 78.9365 84.9526 77.2727 86.7688C75.6088 88.5849 73.353 89.6065 71 89.6094Z" fill="#C2A186"/>
</svg>
