<svg width="136" height="146" viewBox="0 0 136 146" fill="none" xmlns="http://www.w3.org/2000/svg">
<path d="M108.544 116.764L0 146L27.2332 29.4752C27.2332 29.4752 52.7045 -3.63946 95.9913 42.8302C139.278 89.2998 108.544 116.764 108.544 116.764Z" fill="#FED841"/>
<path d="M0 146L108.544 116.764C108.544 116.764 139.251 89.3238 96.0471 42.8906L0 146Z" fill="#FDB118"/>
<path d="M50.1933 113.466C41.0176 116.001 35.4705 125.986 37.7164 135.838L71.2367 126.81C68.858 116.887 59.4365 110.912 50.1933 113.466Z" fill="#FF1F2E"/>
<path d="M104.294 34.0377C85.3424 13.6923 60.6401 1.76369 34.1219 0L27.2332 29.4752C34.8173 29.4752 43.0677 23.2505 50.0677 25.2657C57.3036 27.3485 61.5305 37.2351 67.8701 41.1791C74.2969 45.1773 84.3721 44.2172 89.5916 49.8208C94.8111 55.4241 93.9171 66.2401 97.6414 73.1394C101.315 79.9453 110.525 84.483 112.465 92.2509C114.342 99.7656 108.544 108.623 108.544 116.765L136 109.369C134.357 80.9011 123.245 54.3824 104.294 34.0377Z" fill="#BF5C15"/>
<path d="M104.294 34.0374L89.5916 49.8205C94.8111 55.4238 93.917 66.2398 97.6414 73.1392C101.315 79.945 110.525 84.4827 112.465 92.2506C114.342 99.7653 108.544 108.623 108.544 116.764L136 109.369C134.357 80.9011 123.245 54.3824 104.294 34.0374Z" fill="#994910"/>
<path d="M79.3152 80.5667C80.2299 70.6974 73.5188 61.9008 64.3255 60.9188C55.1322 59.9368 46.938 67.1414 46.0233 77.0107C45.1086 86.88 51.8197 95.6767 61.013 96.6586C70.2063 97.6406 78.4005 90.436 79.3152 80.5667Z" fill="#FF4D55"/>
<path d="M50.8204 91.4427C53.848 94.693 58.0303 96.703 62.65 96.703C71.8895 96.703 79.3796 88.6622 79.3796 78.7433C79.3796 73.7839 77.5072 69.2938 74.4797 66.0439L50.8204 91.4427Z" fill="#FF1F2E"/>
<path d="M17.4595 71.2936L10.3007 101.925C18.1985 103.973 26.1473 98.7599 28.055 90.2813C29.9423 81.8935 25.2078 73.4566 17.4595 71.2936Z" fill="#FF4D55"/>
<path d="M21.9536 114.169H29.6509V122.435H21.9536V114.169Z" fill="#7AD425"/>
<path d="M21.9536 122.432V122.434H29.6512V114.169L21.9536 122.432Z" fill="#6EBD21"/>
<path d="M82.4078 97.9463H90.1051V106.212H82.4078V97.9463Z" fill="#6EBD21"/>
<path d="M38.5754 47.6453H46.2727V55.9111H38.5754V47.6453Z" fill="#7AD425"/>
</svg>
