<svg width="163" height="169" viewBox="0 0 163 169" fill="none" xmlns="http://www.w3.org/2000/svg">
<path d="M75.7189 5.36273H85.2808V28.9356H75.7189V5.36273Z" fill="#F6E486"/>
<path d="M93.5734 32.5116L109.648 15.8456L116.408 22.8549L100.334 39.5209L93.5734 32.5116Z" fill="#F0CE46"/>
<path d="M44.5709 22.8488L51.3314 15.8395L67.4058 32.5055L60.6453 39.5149L44.5709 22.8488Z" fill="#F6E486"/>
<path d="M80.4998 5.36273H85.2808V28.9356H80.4998V5.36273Z" fill="#F0CE46"/>
<path d="M27.4596 124.684C15.1241 119.867 8.86771 105.544 13.5126 92.7546L30.9519 44.7416L75.6937 62.2112L55.0677 100.31C50.4225 113.1 39.7948 129.5 27.4596 124.684Z" fill="#ECF4F9"/>
<path d="M58.255 110.224L75.6937 62.2112L53.3227 53.4764L27.4596 124.684C39.7948 129.5 53.6098 123.013 58.255 110.224Z" fill="#CDDFF8"/>
<path d="M12.7389 151.139L24.4071 118.97L33.3567 122.46L21.6885 154.629L12.7389 151.139Z" fill="#ECF4F9"/>
<path d="M17.2117 152.887L28.8799 120.718L33.3548 122.463L21.6866 154.632L17.2117 152.887Z" fill="#CDDFF8"/>
<path d="M15.5104 157.581L0 151.525L3.36962 142.247L18.88 148.303L32.5838 159.335L15.5104 157.581Z" fill="#ECF4F9"/>
<path d="M15.5239 157.517L18.8897 148.238L34.403 154.287L31.0372 163.566L15.5239 157.517Z" fill="#CDDFF8"/>
<path d="M27.4596 124.684C39.7948 129.5 40.8606 116.404 45.5058 103.615L65.8692 89.2596L16.3812 84.8592L13.5129 92.7546C8.86775 105.544 15.1241 119.867 27.4596 124.684Z" fill="#E17D46"/>
<path d="M58.255 110.224L65.8692 89.2597L41.1252 87.0594L27.4596 124.684C39.7948 129.5 53.6098 123.013 58.255 110.224Z" fill="#DB4D6C"/>
<path d="M134.877 121.145C122.667 126.292 108.695 120.18 103.73 107.519L85.094 59.9922L129.383 41.3246L135.27 85.5462C140.234 98.2066 147.088 115.998 134.877 121.145Z" fill="#ECF4F9"/>
<path d="M148.02 88.8508L129.383 41.3246L107.239 50.6586L134.877 121.145C147.088 115.998 152.984 101.511 148.02 88.8508Z" fill="#CDDFF8"/>
<path d="M128.925 119.054L137.779 115.317L150.276 147.142L141.422 150.879L128.925 119.054Z" fill="#ECF4F9"/>
<path d="M133.353 117.182L137.781 115.313L150.277 147.138L145.85 149.007L133.353 117.182Z" fill="#CDDFF8"/>
<path d="M147.646 153.71L132.294 160.182L128.693 150.997L144.045 144.526L161.129 142.468L147.646 153.71Z" fill="#ECF4F9"/>
<path d="M144.046 144.412L159.393 137.933L162.998 147.113L147.65 153.592L144.046 144.412Z" fill="#CDDFF8"/>
<path d="M134.877 121.145C122.667 126.292 108.695 120.18 103.73 107.519L92.6116 79.1636L144.306 79.3801L135.27 85.5462C140.234 98.2066 147.088 115.998 134.877 121.145Z" fill="#F0CE46"/>
<path d="M118.459 79.2714L134.877 121.145C147.088 115.998 152.984 101.511 148.02 88.8509L144.306 79.3801L118.459 79.2714Z" fill="#E8A43E"/>
</svg>
