<svg width="223" height="188" viewBox="0 0 223 188" fill="none" xmlns="http://www.w3.org/2000/svg">
<g clip-path="url(#clip0)">
<path opacity="0.1" d="M203.287 102.014C194.622 116.492 195.802 135.959 199.177 151.255C200.305 156.376 201.618 161.77 200.449 167.561C199.019 174.63 194.215 180.257 189.4 183.515C180.623 189.455 170.737 189.497 163.659 183.627C157.542 178.552 153.628 169.567 147.375 164.773C136.911 156.752 122.241 162.048 109.425 170.01C100.358 175.644 90.3643 182.752 82.1674 179.015C76.4 176.387 72.9249 168.704 71.3997 160.296C70.6622 156.238 70.258 151.794 68.4429 148.727C67.3629 146.904 65.8536 145.7 64.2851 144.72C49.9531 135.771 30.1597 143.912 16.3712 133.739C7.0578 126.869 1.97301 112.391 0.518581 96.8239C-0.935847 81.2568 0.849652 64.533 2.99819 48.0509C4.52568 36.3431 6.52808 23.7986 12.5285 14.176C18.8759 3.99627 28.6573 -0.693103 37.0596 0.0810016C45.462 0.855106 52.6633 6.34543 58.8304 13.0976C66.5363 21.5411 73.4226 32.3831 83.5625 34.9493C90.4693 36.6966 98.0976 34.3519 105.5 32.9603C117.873 30.6335 130.02 30.9781 142.078 31.5061C153.622 32.0117 165.232 32.7008 175.915 36.7749C183.475 39.6588 189.197 45.8673 196.236 49.8362C200.819 52.4226 206.043 52.6552 210.29 56.1432C215.523 60.441 219.964 68.4819 217.628 78.807C215.406 88.631 207.894 94.3293 203.287 102.014Z" fill="#77BB88"/>
<path d="M37.1599 147.657C37.1599 147.657 21.9261 122.933 26.2003 100.748C27.9972 91.4361 26.8419 81.8023 22.5791 73.2961C20.5497 69.2636 18.1476 65.4217 15.4028 61.8187" stroke="#535461" stroke-width="2" stroke-miterlimit="10"/>
<path d="M18.0239 47.8244C18.9029 51.1088 15.3867 62.1924 15.3867 62.1924C15.3867 62.1924 6.76748 54.2298 5.88615 50.9455C5.46226 49.3683 5.69513 47.6907 6.53353 46.2818C7.37193 44.8729 8.74718 43.848 10.3567 43.4326C11.9663 43.0173 13.6783 43.2455 15.1162 44.067C16.5541 44.8885 17.6 46.2361 18.0239 47.8133V47.8244Z" fill="#77BB88"/>
<path d="M32.929 63.4363C31.8468 66.6625 22.7458 74.0925 22.7458 74.0925C22.7458 74.0925 19.9259 62.8188 21.0105 59.5926C21.2592 58.8152 21.6631 58.0939 22.1987 57.4708C22.7344 56.8477 23.3911 56.3351 24.1306 55.9628C24.8702 55.5905 25.6779 55.366 26.5069 55.3023C27.3358 55.2385 28.1693 55.3369 28.9591 55.5916C29.7489 55.8463 30.4792 56.2523 31.1074 56.7859C31.7357 57.3196 32.2494 57.9703 32.6188 58.7002C32.9882 59.4301 33.2058 60.2247 33.2591 61.0377C33.3123 61.8508 33.2002 62.6661 32.929 63.4363V63.4363Z" fill="#77BB88"/>
<path d="M40.8173 94.6354C38.2213 96.8727 26.5356 98.7968 26.5356 98.7968C26.5356 98.7968 29.9103 87.6707 32.5063 85.4222C33.757 84.3691 35.3805 83.8407 37.0257 83.9514C38.6709 84.0622 40.2054 84.8031 41.2974 86.0139C42.3893 87.2248 42.9509 88.8082 42.8607 90.4216C42.7704 92.035 42.0355 93.5488 40.8151 94.6354H40.8173Z" fill="#77BB88"/>
<path d="M41.3633 119.559C39.192 122.206 28.0063 126.025 28.0063 126.025C28.0063 126.025 29.4128 114.498 31.5842 111.854C32.6301 110.592 34.1431 109.788 35.7923 109.617C37.4416 109.446 39.093 109.921 40.3854 110.94C41.6779 111.958 42.5063 113.436 42.6896 115.051C42.8728 116.667 42.396 118.287 41.3633 119.559Z" fill="#77BB88"/>
<path d="M10.1741 78.0056C13.1903 79.6746 25.0152 79.1645 25.0152 79.1645C25.0152 79.1645 19.3528 68.9691 16.3389 67.3068C15.6203 66.8854 14.8229 66.6092 13.9936 66.4945C13.1643 66.3798 12.3201 66.4289 11.5105 66.639C10.7009 66.849 9.94244 67.2158 9.2798 67.7176C8.61716 68.2194 8.06375 68.8462 7.65219 69.5609C7.24063 70.2756 6.97925 71.0638 6.88346 71.879C6.78767 72.6943 6.85941 73.52 7.09445 74.3077C7.32948 75.0953 7.72306 75.8289 8.25198 76.4651C8.78091 77.1014 9.43446 77.6275 10.1741 78.0123V78.0056Z" fill="#77BB88"/>
<path d="M11.1881 107.146C14.5764 107.856 25.7141 103.898 25.7141 103.898C25.7141 103.898 17.2022 95.8301 13.807 95.1186C12.1796 94.7783 10.4808 95.0855 9.0845 95.9724C7.68817 96.8594 6.70861 98.2536 6.36133 99.8483C6.01404 101.443 6.32747 103.108 7.23267 104.476C8.13787 105.844 9.56068 106.804 11.1881 107.144V107.146Z" fill="#77BB88"/>
<path d="M16.1406 135.336C19.3577 136.596 31.0182 134.54 31.0182 134.54C31.0182 134.54 24.0155 125.177 20.7984 123.917C19.2687 123.379 17.5856 123.444 16.1035 124.097C14.6214 124.751 13.456 125.943 12.8527 127.421C12.2493 128.9 12.2551 130.551 12.8688 132.025C13.4825 133.5 14.6563 134.684 16.1429 135.327L16.1406 135.336Z" fill="#77BB88"/>
<path d="M18.0239 47.8244C18.9029 51.1088 15.3867 62.1924 15.3867 62.1924C15.3867 62.1924 6.76748 54.2298 5.88615 50.9455C5.46226 49.3683 5.69513 47.6907 6.53353 46.2818C7.37193 44.8729 8.74718 43.848 10.3567 43.4326C11.9663 43.0173 13.6783 43.2455 15.1162 44.067C16.5541 44.8885 17.6 46.2361 18.0239 47.8133V47.8244Z" fill="#77BB88"/>
<path d="M32.929 63.4363C31.8468 66.6625 22.7458 74.0925 22.7458 74.0925C22.7458 74.0925 19.9259 62.8188 21.0105 59.5926C21.2592 58.8152 21.6631 58.0939 22.1987 57.4708C22.7344 56.8477 23.3911 56.3351 24.1306 55.9628C24.8702 55.5905 25.6779 55.366 26.5069 55.3023C27.3358 55.2385 28.1693 55.3369 28.9591 55.5916C29.7489 55.8463 30.4792 56.2523 31.1074 56.7859C31.7357 57.3196 32.2494 57.9703 32.6188 58.7002C32.9882 59.4301 33.2058 60.2247 33.2591 61.0377C33.3123 61.8508 33.2002 62.6661 32.929 63.4363V63.4363Z" fill="#77BB88"/>
<path d="M40.8173 94.6354C38.2213 96.8727 26.5356 98.7968 26.5356 98.7968C26.5356 98.7968 29.9103 87.6707 32.5063 85.4222C33.757 84.3691 35.3805 83.8407 37.0257 83.9514C38.6709 84.0622 40.2054 84.8031 41.2974 86.0139C42.3893 87.2248 42.9509 88.8082 42.8607 90.4216C42.7704 92.035 42.0355 93.5488 40.8151 94.6354H40.8173Z" fill="#FC6681"/>
<path d="M41.3633 119.559C39.192 122.206 28.0063 126.025 28.0063 126.025C28.0063 126.025 29.4128 114.498 31.5842 111.854C32.6301 110.592 34.1431 109.788 35.7923 109.617C37.4416 109.446 39.093 109.921 40.3854 110.94C41.6779 111.958 42.5063 113.436 42.6896 115.051C42.8728 116.667 42.396 118.287 41.3633 119.559Z" fill="#FC6681"/>
<path d="M10.1741 78.0056C13.1903 79.6746 25.0152 79.1645 25.0152 79.1645C25.0152 79.1645 19.3528 68.9691 16.3389 67.3068C15.6203 66.8854 14.8229 66.6092 13.9936 66.4945C13.1643 66.3798 12.3201 66.4289 11.5105 66.639C10.7009 66.849 9.94244 67.2158 9.2798 67.7176C8.61716 68.2194 8.06375 68.8462 7.65219 69.5609C7.24063 70.2756 6.97925 71.0638 6.88346 71.879C6.78767 72.6943 6.85941 73.52 7.09445 74.3077C7.32948 75.0953 7.72306 75.8289 8.25198 76.4651C8.78091 77.1014 9.43446 77.6275 10.1741 78.0123V78.0056Z" fill="#77BB88"/>
<path d="M11.1881 107.146C14.5764 107.856 25.7141 103.898 25.7141 103.898C25.7141 103.898 17.2022 95.8301 13.807 95.1186C12.1796 94.7783 10.4808 95.0855 9.0845 95.9724C7.68817 96.8594 6.70861 98.2536 6.36133 99.8483C6.01404 101.443 6.32747 103.108 7.23267 104.476C8.13787 105.844 9.56068 106.804 11.1881 107.144V107.146Z" fill="#77BB88"/>
<path d="M16.1406 135.336C19.3577 136.596 31.0182 134.54 31.0182 134.54C31.0182 134.54 24.0155 125.177 20.7984 123.917C19.2687 123.379 17.5856 123.444 16.1035 124.097C14.6214 124.751 13.456 125.943 12.8527 127.421C12.2493 128.9 12.2551 130.551 12.8688 132.025C13.4825 133.5 14.6563 134.684 16.1429 135.327L16.1406 135.336Z" fill="#77BB88"/>
<path opacity="0.1" d="M113.29 157.859C173.881 157.859 223 154.554 223 150.476C223 146.399 173.881 143.093 113.29 143.093C52.6989 143.093 3.58008 146.399 3.58008 150.476C3.58008 154.554 52.6989 157.859 113.29 157.859Z" fill="#77BB88"/>
<path d="M207.695 144.151C207.695 144.151 207.513 143.912 207.259 143.643L207.332 143.619C207.332 143.619 204.072 135.634 204.798 132.262C205.524 128.891 201.9 120.729 201.9 120.729C201.9 120.729 196.555 110.003 199.085 101.443C199.374 100.435 199.592 99.409 199.738 98.3717C200.494 93.302 200.227 92.2571 198.96 90.4047L198.82 90.2055C198.977 90.0564 199.1 89.8775 199.183 89.6798C200.27 86.8406 194.115 81.6949 195.752 76.9026C197.263 72.4615 193.329 63.2976 192.745 61.9798L192.678 61.8299L192.482 61.8926C192.515 60.7482 192.975 59.6554 193.774 58.8207L193.811 58.785C194.354 58.295 195.014 57.9348 195.523 57.409L195.553 57.3755C195.603 57.3285 195.656 57.2815 195.704 57.2323C196.208 56.7132 196.553 55.9436 196.279 55.2769C196.03 54.6683 195.331 54.2969 195.167 53.6615C195.127 53.3759 195.103 53.0884 195.094 52.8002C194.962 51.9053 194.073 51.3437 193.267 50.9007C192.265 50.3459 191.212 49.7821 190.055 49.7686C188.489 49.7686 187.087 50.7978 185.532 50.9253C185.002 50.9701 184.452 50.9074 183.949 51.0797C183.567 51.2359 183.215 51.457 182.911 51.733C182.732 51.8709 182.562 52.0204 182.404 52.1804C182.052 52.5026 181.753 52.883 181.767 53.3394C181.792 53.6726 181.951 53.9824 182.21 54.2007C181.708 54.8687 181.363 55.6361 181.196 56.4491C181.03 57.262 181.048 58.1007 181.248 58.9063C181.448 59.7119 181.825 60.4648 182.354 61.1121C182.883 61.7594 183.55 62.2855 184.308 62.6532C184.326 62.7763 184.344 62.9016 184.363 63.0336C184.591 64.7138 184.726 67.0898 184.116 68.9512C181.516 70.2645 177.463 72.4056 176.737 73.3565C176.68 73.4369 176.643 73.5284 176.626 73.6246C176.609 73.7208 176.615 73.8194 176.641 73.9135C176.62 74.0008 176.616 74.0909 176.627 74.1798C176.059 74.3073 175.303 74.1798 174.383 73.3565C172.209 71.4055 165.33 65.5483 165.33 65.5483C165.33 65.5483 162.252 58.0959 160.078 59.5076C157.905 60.9193 162.613 67.8482 162.613 67.8482L172.919 78.6768C172.919 78.6768 173.282 80.9834 177.084 79.7417C178.34 79.3323 179.474 78.9407 180.433 78.6029L180.662 78.7931C179.805 83.7017 179.362 90.2436 182.52 92.1632C182.767 92.4844 182.946 92.8512 183.045 93.2415C183.029 93.2997 183.013 93.3601 183 93.4183C182.758 94.398 182.605 95.3967 182.543 96.4028C181.948 97.7364 181.674 99.1863 181.742 100.64L180.531 117.534C180.531 117.534 180.351 121.259 181.618 124.098C182.885 126.937 186.87 141.133 184.153 142.198L184.411 142.232C183.632 143.017 182.322 144.207 181.324 144.442C179.808 144.796 180.232 147.073 183.593 147.453C186.954 147.834 187.358 147.802 189.722 145.872C191.804 144.171 192.135 143.411 192.183 143.247L192.302 143.263C192.302 143.263 191.034 138.65 192.302 136.699C193.569 134.748 189.406 122.861 189.406 122.861C189.372 121.342 189.429 119.823 189.578 118.31C190.217 119.95 190.674 121.087 190.674 121.087C190.674 121.087 191.76 126.233 193.028 127.128C194.295 128.023 200.996 140.258 199.909 145.581L199.784 146.201L200.09 146.113H200.117C199.699 147.127 198.939 148.729 198.099 149.317C196.832 150.212 198.099 152.156 201.359 151.268C204.62 150.38 204.98 150.203 206.43 147.543C207.88 144.883 207.695 144.151 207.695 144.151Z" fill="url(#paint0_linear)"/>
<path d="M183.699 96.7742L182.904 95.8144C182.091 97.294 181.704 98.9619 181.783 100.64L180.6 117.158C180.6 117.158 180.422 120.801 181.662 123.577C182.902 126.354 186.797 140.232 184.141 141.272L192.099 142.326C192.099 142.326 190.859 137.815 192.099 135.907C193.338 133.998 189.265 122.376 189.265 122.376C189.265 122.376 188.911 112.661 192.274 110.404C195.638 108.146 183.699 96.7742 183.699 96.7742Z" fill="#555388"/>
<path d="M185.041 140.621C185.041 140.621 182.856 143.122 181.376 143.469C179.897 143.816 180.31 146.04 183.596 146.413C186.881 146.787 187.276 146.755 189.589 144.867C191.902 142.979 192.005 142.27 192.005 142.27C192.005 142.27 191.548 140.592 190.996 140.556C190.443 140.52 185.041 140.621 185.041 140.621Z" fill="#603556"/>
<path opacity="0.1" d="M184.231 97.2955L182.906 95.8144C182.094 97.294 181.706 98.9619 181.785 100.64L180.603 117.158C180.603 117.158 180.425 120.801 181.664 123.577C182.904 126.354 186.799 140.232 184.144 141.272L192.099 142.326C192.099 142.326 190.859 137.815 192.099 135.907C193.339 133.998 189.265 122.376 189.265 122.376C189.265 122.376 188.911 112.661 192.275 110.404C195.638 108.146 184.231 97.2955 184.231 97.2955Z" fill="black"/>
<path d="M192.113 119.935C192.113 119.935 189.9 77.3791 180.817 62.3176C180.817 62.3176 174.157 50.3973 168.591 46.9206V45.5469C159.508 39.3854 148.331 45.5469 148.331 45.5469V46.1554L146.002 48.0571L135.515 48.0213C135.041 47.4608 134.446 47.0097 133.773 46.7004C133.1 46.391 132.366 46.2309 131.623 46.2315H83.7703C83.0708 46.2307 82.3789 46.3723 81.7383 46.6473C81.0976 46.9223 80.5222 47.3247 80.0486 47.8289H69.1575C69.1575 47.8289 68.5159 47.0973 66.8286 46.3612V45.5469C57.7458 39.3854 46.5693 45.5469 46.5693 45.5469V47.2002C46.3038 47.372 46.068 47.5843 45.8707 47.8289C45.8707 47.8289 36.6715 53.8696 34.5755 61.4048C34.5755 61.4048 23.2803 94.6063 23.0474 120.619C22.8145 146.632 33.0617 150.284 38.4159 150.968C43.7701 151.653 53.3186 150.745 62.6343 127.7L66.5934 114.239C66.5934 114.239 67.2921 106.251 75.6762 111.272C84.0602 116.292 91.5105 108.533 91.5105 108.533H122.951C122.951 108.533 133.419 114.914 142.977 109.885C142.977 109.885 146.703 105.093 150.197 121.295C150.197 121.295 160.91 154.611 177.443 151.188C193.976 147.764 192.113 119.935 192.113 119.935Z" fill="url(#paint1_linear)"/>
<path d="M47.7607 49.0147V46.5537C47.7607 46.5537 58.7203 40.513 67.625 46.5537V48.7909L47.7607 49.0147Z" fill="#535461"/>
<path d="M147.539 49.0147V46.5537C147.539 46.5537 158.498 40.513 167.403 46.5537V48.7909L147.539 49.0147Z" fill="#535461"/>
<path opacity="0.1" d="M47.7607 49.0147V46.5537C47.7607 46.5537 58.7203 40.513 67.625 46.5537V48.7909L47.7607 49.0147Z" fill="black"/>
<path opacity="0.1" d="M147.539 49.0147V46.5537C147.539 46.5537 158.498 40.513 167.403 46.5537V48.7909L147.539 49.0147Z" fill="black"/>
<path d="M80.6396 48.791H69.9084C69.9084 48.791 67.1685 45.6587 58.0355 45.8825C48.9025 46.1062 47.0759 48.791 47.0759 48.791C47.0759 48.791 38.0571 54.7198 36.0022 62.1029C36.0022 62.1029 24.9284 94.6555 24.7001 120.161C24.4718 145.666 34.5181 149.246 39.7695 149.917C45.021 150.588 54.3823 149.693 63.5153 127.096L67.3968 113.896C67.3968 113.896 68.0818 106.066 76.3015 110.988C84.5211 115.91 91.8275 108.303 91.8275 108.303H122.651C122.651 108.303 132.926 114.567 142.287 109.645C142.287 109.645 145.94 104.947 149.365 120.832C149.365 120.832 159.868 153.496 176.079 150.14C192.29 146.785 190.464 119.49 190.464 119.49C190.464 119.49 188.295 77.7639 179.39 62.9978C179.39 62.9978 170.828 47.6723 165.12 47.0011C165.12 47.0011 152.79 44.7638 147.995 46.7774L145.255 49.0147L80.6396 48.791Z" fill="#535461"/>
<path d="M55.7524 90.1809C66.7231 90.1809 75.6166 81.4664 75.6166 70.7165C75.6166 59.9665 66.7231 51.252 55.7524 51.252C44.7817 51.252 35.8882 59.9665 35.8882 70.7165C35.8882 81.4664 44.7817 90.1809 55.7524 90.1809Z" fill="#E2E2EC"/>
<path d="M159.412 90.1809C170.382 90.1809 179.276 81.4664 179.276 70.7165C179.276 59.9665 170.382 51.252 159.412 51.252C148.441 51.252 139.547 59.9665 139.547 70.7165C139.547 81.4664 148.441 90.1809 159.412 90.1809Z" fill="#E2E2EC"/>
<path d="M59.2137 66.3761L56.5651 68.6716C56.3408 68.8651 56.0522 68.9718 55.7534 68.9718C55.4546 68.9718 55.166 68.8651 54.9417 68.6716L52.2886 66.3761C52.1588 66.2641 52.0547 66.1265 51.9831 65.9722C51.9115 65.818 51.874 65.6507 51.873 65.4812V59.1653C51.8737 58.8465 52.0033 58.5409 52.2336 58.3156C52.4639 58.0904 52.776 57.9639 53.1014 57.9639H58.41C58.5714 57.9636 58.7312 57.9945 58.8804 58.0549C59.0296 58.1153 59.1651 58.2039 59.2792 58.3158C59.3933 58.4276 59.4838 58.5604 59.5454 58.7066C59.6071 58.8527 59.6386 59.0094 59.6383 59.1675V65.4767C59.6369 65.6476 59.5983 65.8162 59.525 65.9713C59.4518 66.1264 59.3457 66.2644 59.2137 66.3761V66.3761Z" fill="#535461"/>
<path d="M59.2137 75.0546L56.5651 72.7614C56.3408 72.5679 56.0522 72.4611 55.7534 72.4611C55.4546 72.4611 55.166 72.5679 54.9417 72.7614L52.2886 75.0568C52.1588 75.1688 52.0547 75.3065 51.9831 75.4607C51.9115 75.6149 51.874 75.7823 51.873 75.9517V82.2609C51.8727 82.419 51.9043 82.5757 51.9659 82.7219C52.0276 82.868 52.118 83.0008 52.2322 83.1127C52.3463 83.2245 52.4818 83.3131 52.631 83.3735C52.7802 83.4339 52.94 83.4648 53.1014 83.4645H58.41C58.5712 83.4648 58.7308 83.434 58.8799 83.3737C59.0289 83.3135 59.1643 83.225 59.2784 83.1134C59.3925 83.0019 59.483 82.8693 59.5448 82.7234C59.6066 82.5775 59.6383 82.4211 59.6383 82.2631V75.954C59.6369 75.7831 59.5983 75.6145 59.525 75.4594C59.4518 75.3043 59.3457 75.1663 59.2137 75.0546V75.0546Z" fill="#535461"/>
<path d="M51.3252 74.1127L53.6678 71.5129C53.8653 71.2932 53.9742 71.0104 53.9742 70.7176C53.9742 70.4248 53.8653 70.142 53.6678 69.9222L51.3252 67.3225C51.2108 67.1954 51.0703 67.0935 50.9129 67.0233C50.7556 66.9532 50.5848 66.9164 50.4119 66.9153H43.9732C43.6478 66.9159 43.3359 67.043 43.1061 67.2686C42.8762 67.4943 42.7471 67.8001 42.7471 68.119V73.3207C42.7468 73.4788 42.7783 73.6355 42.84 73.7817C42.9016 73.9278 42.9921 74.0606 43.1062 74.1725C43.2203 74.2843 43.3559 74.3729 43.505 74.4333C43.6542 74.4937 43.8141 74.5246 43.9755 74.5244H50.4142C50.5871 74.5226 50.7576 74.4849 50.9147 74.414C51.0717 74.343 51.2116 74.2404 51.3252 74.1127V74.1127Z" fill="#535461"/>
<path d="M60.1818 74.1127L57.8438 71.5107C57.6459 71.2911 57.5366 71.0083 57.5366 70.7153C57.5366 70.4224 57.6459 70.1395 57.8438 69.92L60.1864 67.3202C60.3007 67.1931 60.4412 67.0911 60.5986 67.0209C60.756 66.9507 60.9267 66.914 61.0997 66.9131H67.5384C67.6998 66.9128 67.8597 66.9437 68.0089 67.0041C68.158 67.0645 68.2936 67.1531 68.4077 67.2649C68.5218 67.3768 68.6123 67.5096 68.6739 67.6558C68.7356 67.8019 68.7671 67.9586 68.7668 68.1167V73.3184C68.7671 73.4764 68.7356 73.6329 68.6741 73.7789C68.6127 73.9249 68.5224 74.0576 68.4085 74.1694C68.2946 74.2812 68.1594 74.3699 68.0104 74.4304C67.8615 74.491 67.7019 74.5221 67.5407 74.5221H61.102C60.9277 74.5219 60.7555 74.4852 60.5968 74.4146C60.4382 74.344 60.2967 74.2411 60.1818 74.1127Z" fill="#535461"/>
<path d="M52.3271 56.3978H59.1769L55.752 53.4893L52.3271 56.3978Z" stroke="#535461" stroke-width="2" stroke-miterlimit="10"/>
<path d="M52.3271 85.0352H59.1769L55.752 87.9436L52.3271 85.0352Z" stroke="#535461" stroke-width="2" stroke-miterlimit="10"/>
<path d="M41.1396 67.3605V74.0724L38.1714 70.7165L41.1396 67.3605Z" stroke="#535461" stroke-width="2" stroke-miterlimit="10"/>
<path d="M70.3647 67.3605V74.0724L73.333 70.7165L70.3647 67.3605Z" stroke="#535461" stroke-width="2" stroke-miterlimit="10"/>
<path d="M82.6945 106.066C90.6388 106.066 97.0789 99.7552 97.0789 91.9708C97.0789 84.1863 90.6388 77.8758 82.6945 77.8758C74.7502 77.8758 68.3101 84.1863 68.3101 91.9708C68.3101 99.7552 74.7502 106.066 82.6945 106.066Z" fill="#E2E2EC"/>
<path d="M82.2381 99.1302C87.5343 99.1302 91.8277 94.9231 91.8277 89.7335C91.8277 84.5439 87.5343 80.3368 82.2381 80.3368C76.9419 80.3368 72.6484 84.5439 72.6484 89.7335C72.6484 94.9231 76.9419 99.1302 82.2381 99.1302Z" fill="#535461"/>
<path d="M132.469 106.066C140.414 106.066 146.854 99.7552 146.854 91.9708C146.854 84.1863 140.414 77.8758 132.469 77.8758C124.525 77.8758 118.085 84.1863 118.085 91.9708C118.085 99.7552 124.525 106.066 132.469 106.066Z" fill="#E2E2EC"/>
<path d="M132.012 99.1302C137.309 99.1302 141.602 94.9231 141.602 89.7335C141.602 84.5439 137.309 80.3368 132.012 80.3368C126.716 80.3368 122.423 84.5439 122.423 89.7335C122.423 94.9231 126.716 99.1302 132.012 99.1302Z" fill="#535461"/>
<path opacity="0.1" d="M82.2378 95.9979C85.7686 95.9979 88.6309 93.1932 88.6309 89.7335C88.6309 86.2737 85.7686 83.469 82.2378 83.469C78.707 83.469 75.8447 86.2737 75.8447 89.7335C75.8447 93.1932 78.707 95.9979 82.2378 95.9979Z" stroke="black" stroke-width="2" stroke-miterlimit="10"/>
<path opacity="0.1" d="M132.013 95.9979C135.544 95.9979 138.406 93.1932 138.406 89.7335C138.406 86.2737 135.544 83.469 132.013 83.469C128.482 83.469 125.62 86.2737 125.62 89.7335C125.62 93.1932 128.482 95.9979 132.013 95.9979Z" stroke="black" stroke-width="2" stroke-miterlimit="10"/>
<path d="M108.039 97.564C110.308 97.564 112.148 95.761 112.148 93.5369C112.148 91.3128 110.308 89.5098 108.039 89.5098C105.769 89.5098 103.929 91.3128 103.929 93.5369C103.929 95.761 105.769 97.564 108.039 97.564Z" fill="#E2E2EC"/>
<path d="M101.757 80.9744C102.253 80.9744 102.654 80.5808 102.654 80.0952C102.654 79.6096 102.253 79.216 101.757 79.216C101.262 79.216 100.86 79.6096 100.86 80.0952C100.86 80.5808 101.262 80.9744 101.757 80.9744Z" fill="#E2E2EC"/>
<path d="M105.119 80.9744C105.614 80.9744 106.016 80.5808 106.016 80.0952C106.016 79.6096 105.614 79.216 105.119 79.216C104.623 79.216 104.221 79.6096 104.221 80.0952C104.221 80.5808 104.623 80.9744 105.119 80.9744Z" fill="#E2E2EC"/>
<path d="M104.671 85.147C105.166 85.147 105.568 84.7534 105.568 84.2678C105.568 83.7822 105.166 83.3885 104.671 83.3885C104.175 83.3885 103.773 83.7822 103.773 84.2678C103.773 84.7534 104.175 85.147 104.671 85.147Z" fill="#E2E2EC"/>
<path d="M107.81 85.2589C108.315 85.2589 108.724 84.8582 108.724 84.364C108.724 83.8697 108.315 83.469 107.81 83.469C107.306 83.469 106.897 83.8697 106.897 84.364C106.897 84.8582 107.306 85.2589 107.81 85.2589Z" fill="#E2E2EC"/>
<path d="M110.945 85.147C111.441 85.147 111.842 84.7534 111.842 84.2678C111.842 83.7822 111.441 83.3885 110.945 83.3885C110.45 83.3885 110.048 83.7822 110.048 84.2678C110.048 84.7534 110.45 85.147 110.945 85.147Z" fill="#E2E2EC"/>
<path d="M103.326 83.1715C103.822 83.1715 104.223 82.7778 104.223 82.2922C104.223 81.8066 103.822 81.413 103.326 81.413C102.83 81.413 102.429 81.8066 102.429 82.2922C102.429 82.7778 102.83 83.1715 103.326 83.1715Z" fill="#E2E2EC"/>
<path d="M106.212 83.2453C106.716 83.2453 107.125 82.8446 107.125 82.3504C107.125 81.8561 106.716 81.4555 106.212 81.4555C105.707 81.4555 105.298 81.8561 105.298 82.3504C105.298 82.8446 105.707 83.2453 106.212 83.2453Z" fill="#E2E2EC"/>
<path d="M109.18 83.2453C109.684 83.2453 110.093 82.8446 110.093 82.3504C110.093 81.8561 109.684 81.4555 109.18 81.4555C108.676 81.4555 108.267 81.8561 108.267 82.3504C108.267 82.8446 108.676 83.2453 109.18 83.2453Z" fill="#E2E2EC"/>
<path d="M112.29 83.1715C112.785 83.1715 113.187 82.7778 113.187 82.2922C113.187 81.8066 112.785 81.413 112.29 81.413C111.794 81.413 111.393 81.8066 111.393 82.2922C111.393 82.7778 111.794 83.1715 112.29 83.1715Z" fill="#E2E2EC"/>
<path d="M107.81 81.008C108.315 81.008 108.724 80.6074 108.724 80.1131C108.724 79.6189 108.315 79.2182 107.81 79.2182C107.306 79.2182 106.897 79.6189 106.897 80.1131C106.897 80.6074 107.306 81.008 107.81 81.008Z" fill="#E2E2EC"/>
<path d="M111.007 81.008C111.511 81.008 111.92 80.6074 111.92 80.1131C111.92 79.6189 111.511 79.2182 111.007 79.2182C110.502 79.2182 110.093 79.6189 110.093 80.1131C110.093 80.6074 110.502 81.008 111.007 81.008Z" fill="#E2E2EC"/>
<path d="M113.635 80.9744C114.131 80.9744 114.532 80.5808 114.532 80.0952C114.532 79.6096 114.131 79.216 113.635 79.216C113.14 79.216 112.738 79.6096 112.738 80.0952C112.738 80.5808 113.14 80.9744 113.635 80.9744Z" fill="#E2E2EC"/>
<path d="M75.0458 50.3571H73.9041C72.8323 50.3571 71.9634 51.2085 71.9634 52.2588V56.9571C71.9634 58.0074 72.8323 58.8588 73.9041 58.8588H75.0458C76.1176 58.8588 76.9865 58.0074 76.9865 56.9571V52.2588C76.9865 51.2085 76.1176 50.3571 75.0458 50.3571Z" fill="#E2E2EC"/>
<path d="M141.716 50.3571H140.575C139.503 50.3571 138.634 51.2085 138.634 52.2588V56.9571C138.634 58.0074 139.503 58.8588 140.575 58.8588H141.716C142.788 58.8588 143.657 58.0074 143.657 56.9571V52.2588C143.657 51.2085 142.788 50.3571 141.716 50.3571Z" fill="#E2E2EC"/>
<path d="M159.64 64.2283C162.666 64.2283 165.12 61.8243 165.12 58.8588C165.12 55.8933 162.666 53.4893 159.64 53.4893C156.614 53.4893 154.16 55.8933 154.16 58.8588C154.16 61.8243 156.614 64.2283 159.64 64.2283Z" fill="#535461"/>
<path d="M147.995 75.6385C151.022 75.6385 153.475 73.2345 153.475 70.269C153.475 67.3035 151.022 64.8995 147.995 64.8995C144.969 64.8995 142.516 67.3035 142.516 70.269C142.516 73.2345 144.969 75.6385 147.995 75.6385Z" fill="#535461"/>
<path d="M171.741 74.9673C174.767 74.9673 177.221 72.5633 177.221 69.5978C177.221 66.6323 174.767 64.2283 171.741 64.2283C168.715 64.2283 166.261 66.6323 166.261 69.5978C166.261 72.5633 168.715 74.9673 171.741 74.9673Z" fill="#535461"/>
<path d="M160.553 86.825C163.579 86.825 166.033 84.421 166.033 81.4555C166.033 78.49 163.579 76.086 160.553 76.086C157.527 76.086 155.073 78.49 155.073 81.4555C155.073 84.421 157.527 86.825 160.553 86.825Z" fill="#535461"/>
<path d="M131.156 47.2249H84.2356C81.4929 47.2249 79.2695 49.4035 79.2695 52.091V72.1148C79.2695 74.8022 81.4929 76.9809 84.2356 76.9809H131.156C133.899 76.9809 136.122 74.8022 136.122 72.1148V52.091C136.122 49.4035 133.899 47.2249 131.156 47.2249Z" fill="#E2E2EC"/>
<path d="M156.329 61.0961L159.526 55.7266L162.951 61.0961H156.329Z" stroke="#E2E2EC" stroke-width="2" stroke-miterlimit="10"/>
<path d="M150.849 67.808H145.141V72.73H150.849V67.808Z" stroke="#E2E2EC" stroke-width="2" stroke-miterlimit="10"/>
<path d="M171.741 72.73C173.506 72.73 174.938 71.3277 174.938 69.5978C174.938 67.8679 173.506 66.4656 171.741 66.4656C169.976 66.4656 168.544 67.8679 168.544 69.5978C168.544 71.3277 169.976 72.73 171.741 72.73Z" stroke="#E2E2EC" stroke-width="2" stroke-miterlimit="10"/>
<path d="M157.927 78.9385L163.065 83.9724" stroke="#E2E2EC" stroke-width="2" stroke-miterlimit="10"/>
<path d="M163.179 78.9385L157.927 83.8606" stroke="#E2E2EC" stroke-width="2" stroke-miterlimit="10"/>
<path d="M78.5412 148.697C79.2261 148.185 79.8768 147.579 80.0755 146.847C80.1772 146.459 80.1229 146.046 79.9236 145.696C79.7244 145.345 79.3954 145.083 79.0046 144.963C78.0206 144.664 76.9703 145.207 76.1711 145.758C75.372 146.308 74.461 146.937 73.4175 146.82C74.4975 146.055 75.0158 144.807 74.7144 143.688C74.6636 143.444 74.5377 143.222 74.3537 143.051C73.808 142.583 72.8171 142.784 72.164 143.151C70.084 144.321 69.5041 146.579 69.4927 148.612C69.2826 147.879 69.4607 147.116 69.4538 146.362C69.447 145.608 69.1913 144.775 68.3967 144.371C67.8884 144.155 67.3381 144.052 66.7847 144.068C65.8509 144.042 64.8074 144.115 64.1704 144.664C63.3781 145.335 63.5836 146.482 64.2732 147.23C64.9627 147.977 66.013 148.447 66.9788 148.964C67.7163 149.357 68.4606 149.816 68.9127 150.438C68.9706 150.52 69.0188 150.609 69.0565 150.702H74.9176C76.2054 150.183 77.4225 149.51 78.5412 148.697V148.697Z" fill="#77BB88"/>
<path d="M200.076 144.225C200.076 144.225 199.015 147.357 197.775 148.216C196.535 149.076 197.775 150.993 200.971 150.125C204.168 149.257 204.513 149.084 205.928 146.482C207.344 143.881 207.168 143.187 207.168 143.187C207.168 143.187 206.106 141.8 205.57 141.972C205.033 142.144 200.076 144.225 200.076 144.225Z" fill="#603556"/>
<path d="M193.525 66.3269C193.525 66.3269 179.184 74.1328 182.548 71.8776C184.808 70.363 184.671 66.3425 184.338 63.8659C184.233 63.094 184.109 62.472 184.034 62.123C183.991 61.9261 183.963 61.8165 183.963 61.8165C183.963 61.8165 190.918 57.7267 190.528 60.1855C190.528 60.2079 190.528 60.2303 190.516 60.2526C190.483 60.4169 190.465 60.584 190.464 60.7515C190.416 63.2797 193.525 66.3269 193.525 66.3269Z" fill="#C87486"/>
<path d="M177.942 73.9605C177.942 73.9605 176.703 75.8689 174.579 73.9605C172.456 72.0521 165.727 66.3269 165.727 66.3269C165.727 66.3269 162.718 59.04 160.59 60.4294C158.462 61.8187 163.069 68.5843 163.069 68.5843L173.161 79.1667C173.161 79.1667 173.515 81.4219 177.235 80.2071C180.954 78.9922 183.609 77.9519 183.609 77.9519L177.942 73.9605Z" fill="#C87486"/>
<path d="M206.805 142.663L199.727 145.093L199.428 145.178L199.551 144.572C200.613 139.368 194.071 127.396 192.823 126.528C191.574 125.66 190.516 120.624 190.516 120.624C190.516 120.624 188.197 109.173 187.843 106.753C187.754 106.146 187.429 105.663 187.037 104.996C186.444 103.986 185.984 102.907 185.667 101.784C184.888 99.0988 183.073 94.3334 183.74 91.6374C183.874 91.0893 183.324 92.4898 183.511 91.9551L183.619 91.6598L197.953 89.7491C198.191 90.0321 198.413 90.3271 198.62 90.6329C199.704 92.2102 199.633 92.2102 199.862 95.2081C199.763 97.0169 199.503 98.8136 199.083 100.578C197.154 108.997 201.506 120.266 201.506 120.266C201.506 120.266 205.047 128.246 204.339 131.542C203.631 134.837 206.805 142.663 206.805 142.663Z" fill="#555388"/>
<path opacity="0.1" d="M198.619 90.6306C196.498 93.2371 182.911 95.2618 183.08 94.434C183.131 94.1483 183.109 93.8547 183.016 93.5794C183.151 93.0296 183.314 92.4867 183.504 91.9529L183.612 91.6576L197.953 89.7491C198.19 90.0314 198.413 90.3256 198.619 90.6306V90.6306Z" fill="black"/>
<path d="M192.464 62.6779C192.464 62.6779 186.619 64.4185 185.021 68.4098C183.422 72.4011 186.233 72.6182 186.233 72.6182C186.233 72.6182 181.21 85.5945 182.541 92.3511C182.541 92.3511 183.249 93.2192 183.073 94.085C182.897 94.9509 197.768 92.6979 198.827 89.9214C199.887 87.1449 193.87 82.1155 195.464 77.4306C197.058 72.7457 192.464 62.6779 192.464 62.6779Z" fill="#DFE5EE"/>
<path opacity="0.1" d="M190.517 60.6016C190.507 60.6538 190.489 60.7043 190.464 60.7515C190.222 61.199 189.453 60.709 189.72 61.3802C188.692 62.3915 188.368 64.4162 186.8 64.4162C185.947 64.4187 185.104 64.2313 184.336 63.8681C184.231 63.0962 184.108 62.4743 184.032 62.1252C184.717 61.727 190.197 58.6172 190.526 60.1877C190.551 60.3249 190.548 60.4657 190.517 60.6016V60.6016Z" fill="black"/>
<path d="M186.797 64.0717C189.925 64.0717 192.461 61.5865 192.461 58.521C192.461 55.4554 189.925 52.9702 186.797 52.9702C183.668 52.9702 181.132 55.4554 181.132 58.521C181.132 61.5865 183.668 64.0717 186.797 64.0717Z" fill="#C87486"/>
<path opacity="0.1" d="M192.464 76.2157L182.55 80.7261C182.55 80.7261 175.821 75.6967 176.883 74.3118C177.945 72.9269 186.267 68.9423 186.267 68.9423C186.267 68.9423 194.765 70.665 192.464 76.2157Z" fill="black"/>
<path d="M192.464 75.8779L182.55 80.3883C182.55 80.3883 175.821 75.3566 176.885 73.9695C177.949 72.5824 186.269 68.6 186.269 68.6C186.269 68.6 194.765 70.3182 192.464 75.8779Z" fill="#DFE5EE"/>
<path opacity="0.1" d="M185.162 56.1427C184.297 56.0577 183.402 55.9637 182.651 55.5364C182.214 55.2903 181.815 54.8831 181.801 54.3887C181.785 53.807 182.285 53.3528 182.744 52.9837C183.042 52.7142 183.386 52.4983 183.76 52.346C184.251 52.1782 184.788 52.2386 185.306 52.1961C186.831 52.0708 188.197 51.0551 189.729 51.0641C190.854 51.0641 191.889 51.6279 192.868 52.1715C193.651 52.6056 194.521 53.1559 194.651 54.0285C194.66 54.3099 194.684 54.5907 194.722 54.8697C194.884 55.4917 195.567 55.8541 195.811 56.4492C196.078 57.1003 195.74 57.8542 195.247 58.3621C194.754 58.87 194.106 59.219 193.587 59.6933C193.106 60.1302 192.725 60.6619 192.468 61.2533C192.212 61.8448 192.086 62.4827 192.099 63.1253C192.11 63.21 192.097 63.2962 192.06 63.3736C192.021 63.4201 191.972 63.458 191.917 63.4849C191.862 63.5119 191.802 63.5273 191.74 63.5302C191.176 63.6332 190.48 63.6891 190.142 63.2327C189.804 62.7763 190.071 62.0156 189.685 61.5659C189.194 60.9864 188.162 61.4473 187.498 61.067C187.274 60.9247 187.099 60.7197 186.996 60.4786C186.448 59.3219 187.075 58.4136 187.304 57.3083C187.571 56.0174 186.091 56.2344 185.162 56.1427Z" fill="black"/>
<path d="M185.34 55.966C184.475 55.881 183.58 55.787 182.829 55.3597C182.393 55.1136 181.993 54.7064 181.979 54.2119C181.963 53.6302 182.463 53.1761 182.922 52.8069C183.22 52.5374 183.564 52.3216 183.938 52.1693C184.429 52.0015 184.966 52.0619 185.484 52.0194C187.009 51.8941 188.375 50.8783 189.907 50.8873C191.032 50.8873 192.067 51.4511 193.046 51.9948C193.829 52.4288 194.699 52.9792 194.829 53.8517C194.838 54.1331 194.862 54.4139 194.9 54.6929C195.062 55.3149 195.745 55.6774 195.989 56.2725C196.256 56.9235 195.919 57.6775 195.425 58.1854C194.932 58.6932 194.284 59.0423 193.765 59.5166C193.283 59.9543 192.901 60.4873 192.644 61.0804C192.387 61.6736 192.261 62.3133 192.275 62.9575C192.286 63.0422 192.273 63.1284 192.236 63.2059C192.196 63.2523 192.148 63.2902 192.093 63.3172C192.038 63.3441 191.978 63.3596 191.916 63.3625C191.352 63.4654 190.656 63.5213 190.318 63.0649C189.98 62.6085 190.247 61.8478 189.861 61.3981C189.37 60.8187 188.338 61.2796 187.674 60.8992C187.45 60.7569 187.275 60.5519 187.171 60.3108C186.619 59.1519 187.249 58.2368 187.477 57.1204C187.747 55.8429 186.267 56.0622 185.34 55.966Z" fill="#603456"/>
</g>
<defs>
<linearGradient id="paint0_linear" x1="183.6" y1="151.476" x2="183.6" y2="49.7597" gradientUnits="userSpaceOnUse">
<stop stop-color="#808080" stop-opacity="0.25"/>
<stop offset="0.54" stop-color="#808080" stop-opacity="0.12"/>
<stop offset="1" stop-color="#808080" stop-opacity="0.1"/>
</linearGradient>
<linearGradient id="paint1_linear" x1="98622" y1="76814.2" x2="98622" y2="24069.8" gradientUnits="userSpaceOnUse">
<stop stop-color="#808080" stop-opacity="0.25"/>
<stop offset="0.54" stop-color="#808080" stop-opacity="0.12"/>
<stop offset="1" stop-color="#808080" stop-opacity="0.1"/>
</linearGradient>
<clipPath id="clip0">
<rect width="223" height="188" fill="white"/>
</clipPath>
</defs>
</svg>
