<svg width="23" height="19" viewBox="0 0 23 19" fill="none" xmlns="http://www.w3.org/2000/svg">
<g clip-path="url(#clip0)">
<path d="M1.52261 19.5784C1.41545 19.2699 1.65832 18.9703 2.06524 18.9091C3.39859 18.7086 3.45899 18.1309 3.28568 16.6522C3.11543 15.1986 2.88231 13.2079 6.34855 12.6356C8.73938 12.2409 10.1607 11.1066 10.7828 10.4838L10.1328 10.0895C9.55189 10.6927 8.11366 11.9031 5.62758 12.3135C2.16133 12.8858 2.39446 14.8766 2.5647 16.3301C2.73802 17.8088 2.67757 18.3865 1.34427 18.587C0.93739 18.6482 0.694424 18.9478 0.801636 19.2564C0.847111 19.387 0.948117 19.4984 1.08023 19.5786C1.22478 19.6663 1.40673 19.7159 1.59417 19.7141C1.56368 19.6719 1.53935 19.6265 1.52261 19.5784Z" fill="#56422F"/>
<path d="M12.469 0.883832L12.4729 0.883611L12.473 0.883602C12.5588 0.879697 19.1554 0.579846 18.9876 0.587489C20.0905 0.537336 20.2844 1.41023 20.2887 1.43008L21.341 6.65019C21.3552 6.73064 21.4055 7.25659 20.3802 7.60303L10.7242 10.8649L9.64024 10.1622L11.4984 1.86329C11.4984 1.86329 11.4984 1.86326 11.4984 1.8632C11.7051 0.939997 12.4124 0.8866 12.469 0.883832Z" fill="#B7D8B7"/>
<path d="M20.2887 1.43028C20.2844 1.41043 20.0905 0.537567 18.9876 0.587688C18.9875 0.587697 18.9874 0.587677 18.9872 0.587699L17.2454 0.666885C14.0409 1.76355 11.8934 4.46654 12.2033 7.36881C12.3075 8.34384 12.6782 9.23822 13.2519 10.0112L20.3802 7.60323C21.4055 7.25679 21.3553 6.73084 21.3411 6.65039L20.2887 1.43028Z" fill="#E9F5E9"/>
<path d="M16.9593 4.1017L20.0558 0.989458C19.9506 0.866793 19.801 0.74623 19.5898 0.669207L16.4824 3.79251L12.1372 0.975906C11.9968 1.04278 11.8361 1.1585 11.7045 1.35813L16.0815 4.19547L9.947 10.3612L10.424 10.6704L16.5584 4.50462L20.9336 7.34076C21.1505 7.19418 21.2557 7.04303 21.3049 6.91862L16.9593 4.1017Z" fill="#56422F"/>
</g>
<defs>
<clipPath id="clip0">
<rect width="20.7488" height="16.8316" fill="white" transform="translate(0 2.20364) rotate(-6.09665)"/>
</clipPath>
</defs>
</svg>
