<svg width="267" height="136" viewBox="0 0 267 136" fill="none" xmlns="http://www.w3.org/2000/svg">
<g filter="url(#filter0_d)">
<path d="M16.9474 93.624L16.7287 94.2914C16.7884 94.7406 17.4733 95.0909 18.7835 95.3424C20.1071 95.5764 21.5201 95.5936 23.0225 95.394C24.5404 95.1923 26.1756 94.7465 27.9282 94.0565C29.6807 93.3666 31.1797 92.6078 32.4254 91.7803C33.6865 90.9508 34.7034 90.1221 35.4761 89.2944C36.2643 88.4646 36.6234 87.7864 36.5534 87.2598C36.4649 86.5937 35.6082 86.0771 33.9831 85.7098C32.3581 85.3425 30.0211 85.0146 26.9722 84.7261C23.9367 84.4202 21.6597 83.8321 20.1413 82.962C18.6383 82.0899 17.787 80.9026 17.5874 79.4002C17.3858 77.8823 17.7355 76.362 18.6365 74.8394C19.5376 73.3169 20.7845 71.906 22.3773 70.6068C23.9855 69.3055 25.7641 68.0998 27.713 66.9897C31.744 64.7045 35.5794 63.3201 39.2193 62.8365C40.6133 62.6513 41.8612 62.6116 42.9628 62.7174C45.0712 62.9259 46.1778 63.4252 46.2827 64.2151C46.3877 65.005 46.39 65.5564 46.2897 65.8692C46.1874 66.1665 46.0959 66.3678 46.0153 66.4731C45.9502 66.5763 45.8541 66.6837 45.7271 66.7951C45.6155 66.9045 45.5319 66.9866 45.4761 67.0413C44.8707 67.7049 43.0516 68.3091 40.0188 68.8539C38.9718 69.0403 38.4059 69.1707 38.3212 69.245C38.2365 69.3193 38.1554 69.3616 38.078 69.3719C38.016 69.3801 37.9303 69.3285 37.8209 69.2169C37.7115 69.1053 37.6383 68.9101 37.6013 68.6313C37.5642 68.3525 37.7983 67.8013 38.3036 66.9776C36.4284 67.337 34.4647 68.0393 32.4126 69.0843C30.376 70.1272 28.6315 71.2338 27.1792 72.404C25.7249 73.5588 24.5329 74.6708 23.6031 75.74C22.6713 76.7938 22.2311 77.5143 22.2825 77.9015C22.3319 78.2733 22.4892 78.5676 22.7545 78.7846C23.4976 79.3951 25.3988 79.8834 28.458 80.2493C31.6298 80.6317 33.7587 80.9951 34.8447 81.3395C35.9308 81.6838 36.8357 82.0286 37.5593 82.3738C38.2984 82.7169 38.8992 83.0863 39.3616 83.482C40.4505 84.4407 41.069 85.4776 41.2172 86.5928C41.3653 87.708 41.2022 88.7937 40.7278 89.8497C40.2688 90.9037 39.496 91.9679 38.4093 93.0423C37.3381 94.1146 36.0366 95.115 34.505 96.0436C31.1545 98.1122 27.0165 99.4738 22.091 100.128C18.4976 100.606 16.0787 99.9576 14.8343 98.1842C14.5072 97.739 14.3097 97.2609 14.2418 96.7498C14.1718 96.2231 14.2252 95.7353 14.402 95.2862C14.5942 94.8351 14.8463 94.4785 15.1583 94.2163C15.7687 93.7097 16.2134 93.4378 16.4922 93.4008C16.771 93.3637 16.9227 93.4381 16.9474 93.624ZM56.4592 68.9157C56.5766 69.7986 56.2844 70.7438 55.5829 71.7512C54.8793 72.7431 54.0783 73.2988 53.1799 73.4181C52.2971 73.5354 51.7939 73.1294 51.6704 72.2001C51.5469 71.2707 51.8169 70.3364 52.4802 69.3971C53.1569 68.4403 53.9677 67.8991 54.9125 67.7736C55.3307 67.718 55.6792 67.7899 55.9579 67.9893C56.2366 68.1887 56.4037 68.4975 56.4592 68.9157ZM55.3903 89.6985C55.452 90.1632 55.4498 90.5024 55.3836 90.7161C54.8304 92.3658 53.789 93.7809 52.2593 94.9614C50.7275 96.1264 49.3498 96.7902 48.1262 96.9528C46.9026 97.1154 45.7948 96.8449 44.8028 96.1412C43.8109 95.4376 43.2584 94.6599 43.1452 93.808C43.032 92.9561 43.2933 91.6604 43.9291 89.9209C44.5649 88.1814 45.2172 86.5658 45.8859 85.0741C46.5547 83.5824 46.8818 82.7823 46.8674 82.6739C46.8509 82.55 46.6574 82.3393 46.2869 82.0417C45.9319 81.7421 45.744 81.5149 45.7235 81.36C45.7008 81.1896 45.9618 80.7215 46.5062 79.9556C47.0642 79.1722 47.7558 78.3867 48.5812 77.5993C49.42 76.7943 50.0794 76.3599 50.5596 76.2961C51.0552 76.2303 51.5255 76.3885 51.9703 76.7707C52.4152 77.1529 52.6612 77.5222 52.7086 77.8784C52.7559 78.2347 51.3583 81.8329 48.5157 88.6731C48.4815 88.7722 48.3777 88.9988 48.204 89.3529C48.0438 89.6894 47.9162 89.9744 47.8211 90.2077C47.7394 90.4234 47.6407 90.6887 47.5249 91.0036C47.2974 91.6643 47.2115 92.2038 47.2671 92.622C47.337 93.1486 47.7283 93.3646 48.4407 93.2699C49.1532 93.1753 49.8571 92.8374 50.5522 92.2564C51.2608 91.6579 51.8548 91.0273 52.3342 90.3646C53.5823 88.6068 54.307 87.7145 54.5084 87.6878C54.9111 87.6343 55.2051 88.3045 55.3903 89.6985ZM54.4073 95.2908L53.2627 95.3955L52.8445 95.4511C52.6834 95.4252 52.5085 95.3539 52.3196 95.2371C52.1152 95.1224 51.9624 95.0403 51.8612 94.9907C51.7601 94.941 51.6992 94.8388 51.6786 94.6839C51.656 94.5135 51.6799 94.2188 51.7503 93.7996C53.8878 86.7536 56.1016 81.053 58.3916 76.6978C58.6438 76.2229 59.0962 75.8318 59.7489 75.5244C60.4151 75.1995 61.0734 74.9938 61.7239 74.9074C62.1112 74.8559 62.3449 75.1322 62.4252 75.7363C62.4478 75.9067 62.4167 76.1472 62.3319 76.458C62.245 76.7532 61.997 77.2591 61.5878 77.9755C61.1786 78.6918 60.6888 79.5135 60.1184 80.4405C59.548 81.3674 59.2246 81.899 59.1481 82.0353C60.9778 79.5539 62.6736 77.6657 64.2354 76.3706C65.8106 75.0579 66.9777 74.3512 67.7367 74.2503C68.5111 74.1475 69.1295 74.2938 69.5919 74.6895C70.0677 75.0676 70.3396 75.5123 70.4075 76.0234C70.4734 76.519 70.4902 76.9424 70.458 77.2934C70.4393 77.6269 70.3617 77.9919 70.2252 78.3883C70.0867 78.7693 69.9652 79.1007 69.8608 79.3825C69.7698 79.6468 69.5972 80.0086 69.343 80.4679C69.0867 80.9118 68.9069 81.2194 68.8036 81.3908C68.7157 81.5601 68.5147 81.8863 68.2006 82.3693C67.902 82.8504 67.7403 83.1162 67.7155 83.1667C68.0916 82.6754 68.6102 81.9524 69.2715 80.9976C69.9327 80.0428 70.4886 79.2439 70.9391 78.6008C71.4051 77.9557 71.9934 77.2234 72.7042 76.4039C73.4129 75.5689 74.0859 74.8805 74.7232 74.3388C76.2561 73.0633 77.8821 72.3113 79.6014 72.0829C80.19 72.0047 80.7103 72.1247 81.1624 72.4429C81.6145 72.7611 81.8756 73.1836 81.9455 73.7102C82.0134 74.2213 81.5508 75.5438 80.5575 77.6776C79.5622 79.7958 78.569 81.9296 77.5778 84.0789C76.6 86.2106 76.1451 87.532 76.213 88.0432C76.3077 88.7557 76.4959 89.1641 76.7778 89.2685C77.0575 89.3575 77.3812 89.3617 77.7489 89.2814C78.1165 89.201 78.6035 88.892 79.2098 88.3543C79.8316 87.8146 80.374 87.2697 80.8368 86.7195C81.5858 85.8319 82.2759 84.9757 82.9072 84.151C83.0435 83.9911 83.2046 83.8987 83.3905 83.874C83.6848 83.8349 83.8928 84.0359 84.0144 84.4768C84.136 84.9178 84.2287 85.3783 84.2925 85.8585C84.3563 86.3386 84.3541 86.6778 84.2859 86.876C83.9519 87.8031 83.1016 88.9958 81.7349 90.4541C80.3682 91.9124 78.9801 92.7352 77.5706 92.9225C77.4002 92.9451 77.2753 92.9539 77.1958 92.9487C75.5799 93.0057 74.4148 92.7192 73.7006 92.089C72.9998 91.4413 72.5835 90.6218 72.4518 89.6305C72.3201 88.6392 72.4936 87.3946 72.9724 85.8966C73.4666 84.3966 74.0403 83.0199 74.6935 81.7668C75.3466 80.5136 75.9455 79.3858 76.4901 78.3835C77.0481 77.3636 77.322 76.8149 77.3117 76.7375C77.3014 76.66 77.2343 76.6296 77.1104 76.646C76.6302 76.7098 75.6644 77.6262 74.2129 79.3953C71.7303 82.4205 69.6226 85.3013 67.8898 88.0378C67.4341 88.7603 66.3677 90.5807 64.6906 93.4989C64.4994 93.8395 64.1482 94.0438 63.6371 94.1117C63.1415 94.1776 62.6102 94.1536 62.0434 94.0398C61.4746 93.9104 61.1696 93.6909 61.1284 93.3811C61.1078 93.2262 62.0511 90.8942 63.9582 86.385C65.8632 81.8603 66.7911 79.412 66.7417 79.0403C66.6902 78.6531 66.4322 78.4903 65.9675 78.5521C65.5183 78.6118 64.6718 79.4178 63.4279 80.9701C60.0072 85.2391 57.4663 89.3675 55.8052 93.3554C55.6946 93.5908 55.4688 93.9675 55.1279 94.4857C54.7869 95.0039 54.5467 95.2722 54.4073 95.2908ZM98.0536 55.6107C95.4378 60.9549 92.937 66.5123 90.5513 72.2831C91.2144 71.8167 91.9771 71.4474 92.8394 71.1752C93.7151 70.8855 94.3311 70.7169 94.6873 70.6696C95.059 70.6202 95.3786 70.5935 95.6461 70.5895C95.9114 70.57 96.2558 70.6109 96.679 70.7123C97.1158 70.7962 97.4988 70.9502 97.828 71.1744C98.6249 71.7148 99.1005 72.5658 99.2548 73.7275C99.4092 74.8891 99.2614 76.2092 98.8116 77.6875C98.3752 79.1484 97.7075 80.6478 96.8085 82.1859C95.925 83.7218 94.9207 85.1793 93.7956 86.5583C92.684 87.9196 91.4429 89.0776 90.0723 90.032C88.7017 90.9865 87.3813 91.5481 86.1112 91.7168C85.5226 91.795 84.7907 91.5061 83.9154 90.85C83.0556 90.1919 82.5434 89.2433 82.3788 88.0042C82.2142 86.7651 82.4933 84.7735 83.2163 82.0293C83.9394 79.2852 84.8818 76.4725 86.0437 73.5913C87.219 70.6925 88.4268 67.8603 89.6672 65.0947C90.923 62.3271 92.0004 60.056 92.8995 58.2815C93.7987 56.507 94.3557 55.4794 94.5706 55.1986C94.7855 54.9179 95.2068 54.6491 95.8347 54.3923C96.4781 54.1334 97.0409 53.9798 97.5231 53.9315C98.0033 53.8677 98.2722 54.0527 98.3298 54.4864C98.3668 54.7652 98.2748 55.1399 98.0536 55.6107ZM94.744 78.7481C95.2309 77.5486 95.4136 76.4918 95.2922 75.578C95.1708 74.6642 94.8158 74.2463 94.2272 74.3245C93.6541 74.4007 92.7974 74.7746 91.6572 75.4462C90.5304 76.1003 89.8818 76.4387 89.7115 76.4613C89.5411 76.484 89.298 76.3744 88.9821 76.1327C86.6841 81.9705 85.6349 85.6407 85.8345 87.1431C85.9272 87.8401 86.198 88.1588 86.6472 88.0991C87.716 87.9571 89.1388 86.8617 90.9157 84.813C92.6905 82.7487 93.9666 80.7271 94.744 78.7481ZM114.511 69.147C114.976 69.0853 115.476 69.2316 116.012 69.586C116.563 69.9383 116.896 70.5482 117.011 71.4156C117.124 72.2675 116.971 73.4228 116.55 74.8816C116.127 76.3248 115.483 77.8289 114.619 79.3939C113.753 80.9433 112.769 82.4297 111.665 83.853C110.575 85.2588 109.348 86.4622 107.984 87.4631C106.633 88.4465 105.361 89.0174 104.168 89.1759C102.976 89.3343 101.966 89.0902 101.139 88.4434C100.326 87.7791 99.8306 86.781 99.6537 85.4489C99.4746 84.1014 99.6023 82.5712 100.037 80.8585C100.487 79.1437 101.148 77.5977 102.021 76.2208C102.892 74.8283 103.866 73.5561 104.943 72.4043C107.198 70.0398 109.278 68.731 111.183 68.4779C112.035 68.3647 112.705 68.4884 113.195 68.849C113.368 68.9678 113.462 69.0815 113.476 69.1899L113.495 69.3293C113.708 69.2695 114.046 69.2087 114.511 69.147ZM112.575 72.5488L112.412 72.5704C111.87 72.6424 111.547 72.2835 111.442 71.4935C110.36 72.0155 109.262 72.8235 108.146 73.9174C107.031 75.0114 106.069 76.2582 105.262 77.658C103.617 80.4616 102.896 82.7406 103.097 84.4949C103.212 85.3623 103.587 85.7538 104.223 85.6694C104.858 85.585 105.747 85.0413 106.89 84.0382C108.034 83.0351 109.114 81.6779 110.132 79.9664C111.166 78.2529 111.909 76.7906 112.363 75.5797C112.83 74.3512 113.037 73.5356 112.984 73.1329C112.928 72.7147 112.792 72.52 112.575 72.5488ZM124.428 72.9601C127.532 68.3234 130.369 65.8342 132.94 65.4926C133.575 65.4082 134.12 65.5329 134.574 65.8666C135.042 66.1828 135.316 66.6429 135.396 67.247C135.476 67.851 135.177 68.9232 134.499 70.4634C133.835 71.9861 133.203 73.2837 132.605 74.3562C132.283 74.9033 131.875 75.2098 131.379 75.2756C130.899 75.3394 130.496 75.2117 130.17 74.8925C129.859 74.5712 129.672 74.1705 129.608 73.6904C129.466 72.6216 129.879 71.3374 130.846 69.8376L130.793 69.7973C130.288 69.9116 129.152 71.0872 127.384 73.3238C125.632 75.5585 124.147 77.5526 122.93 79.3063C121.727 81.0425 120.444 83.1359 119.083 85.5864C118.692 86.3163 118.325 86.7038 117.985 86.7491C117.659 86.7923 117.212 86.7492 116.643 86.6199C116.057 86.4772 115.703 86.3665 115.583 86.288C115.446 86.2115 115.364 86.0649 115.335 85.848C115.306 85.6312 115.335 85.3751 115.422 85.0799C115.507 84.7691 115.685 84.3278 115.956 83.7559C116.211 83.186 116.593 82.2683 117.103 81.0027C117.628 79.7349 118.445 77.8138 119.553 75.2392C120.661 72.6646 121.321 71.1109 121.534 70.5782C121.987 69.4778 122.368 68.6705 122.678 68.1564C123.258 67.181 124.376 66.5831 126.034 66.3629C126.406 66.3135 126.622 66.5212 126.684 66.9858C126.781 67.7138 126.289 69.1741 125.209 71.3667L124.428 72.9601ZM150.529 64.4088C151.706 64.2524 152.348 64.5769 152.455 65.3824C152.513 65.816 152.454 66.1469 152.28 66.3751C152.105 66.6032 151.761 67.3345 151.247 68.5692C150.747 69.7863 150.212 71.339 149.644 73.2272C149.088 75.0979 148.778 76.676 148.712 77.9615C148.686 78.1225 148.692 78.3425 148.729 78.6213C148.842 79.4732 149.131 79.8682 149.596 79.8065C150.06 79.7448 150.581 79.4549 151.159 78.9368C151.734 78.4032 152.237 77.8557 152.666 77.2942C153.094 76.7172 153.505 76.1346 153.9 75.5462C154.31 74.9558 154.557 74.6157 154.639 74.5259C154.722 74.4361 154.856 74.3789 155.042 74.3542C155.336 74.3151 155.544 74.516 155.666 74.9569C155.788 75.3979 155.88 75.8584 155.944 76.3386C156.008 76.8187 156.006 77.1579 155.937 77.3561C155.606 78.2987 154.755 79.4914 153.387 80.9342C152.033 82.375 150.729 83.1787 149.475 83.3454C148.236 83.5101 147.271 83.252 146.582 82.5713C145.892 81.8905 145.487 81.0932 145.366 80.1794C145.242 79.25 145.289 78.4163 145.506 77.6781C144.443 79.5217 143.152 81.1355 141.634 82.5194C140.131 83.9013 138.852 84.6622 137.799 84.8021C136.746 84.942 135.844 84.7387 135.094 84.1922C134.137 83.5154 133.566 82.4801 133.381 81.0861C133.193 79.6766 133.316 78.2259 133.748 76.7341C134.194 75.2248 134.851 73.8213 135.719 72.5239C136.585 71.2109 137.565 69.993 138.661 68.8701C140.965 66.5149 143.201 65.1933 145.37 64.9052C146.206 64.794 146.906 64.8429 147.47 65.0517C148.033 65.2605 148.413 65.5648 148.608 65.9645C148.905 65.3575 149.169 64.9678 149.398 64.7955C149.641 64.6056 150.018 64.4767 150.529 64.4088ZM147.781 67.3983C145.133 67.7502 142.587 69.5859 140.143 72.9054C139.277 74.0924 138.515 75.4782 137.859 77.0628C137.218 78.6454 136.933 79.7077 137.005 80.2498C137.077 80.7919 137.268 81.0424 137.578 81.0013C138.012 80.9436 139.107 79.9312 140.863 77.9641C142.617 75.9814 143.766 74.5441 144.309 73.6523C144.902 72.6592 146.06 70.5746 147.781 67.3983Z" fill="#08090A"/>
<path d="M101.525 108.815L101.383 110H95.735L97.055 99.2525H98.4575L97.28 108.815H101.525ZM107.518 103.332C107.408 103.307 107.298 103.292 107.188 103.287C107.083 103.277 106.978 103.272 106.873 103.272C106.573 103.272 106.283 103.322 106.003 103.422C105.723 103.517 105.46 103.652 105.215 103.827C104.97 104.002 104.748 104.212 104.548 104.457C104.348 104.697 104.175 104.962 104.03 105.252C103.89 105.542 103.78 105.852 103.7 106.182C103.62 106.507 103.58 106.842 103.58 107.187C103.58 108.392 103.965 108.995 104.735 108.995C104.98 108.995 105.22 108.92 105.455 108.77C105.69 108.615 105.913 108.402 106.123 108.132C106.338 107.857 106.535 107.535 106.715 107.165C106.895 106.79 107.055 106.38 107.195 105.935L107.518 103.332ZM107.008 107.997C106.828 108.317 106.633 108.607 106.423 108.867C106.218 109.127 105.998 109.35 105.763 109.535C105.533 109.715 105.288 109.855 105.028 109.955C104.773 110.055 104.508 110.105 104.233 110.105C103.933 110.105 103.66 110.048 103.415 109.932C103.17 109.812 102.96 109.64 102.785 109.415C102.615 109.185 102.483 108.905 102.388 108.575C102.293 108.24 102.245 107.857 102.245 107.427C102.245 106.977 102.3 106.54 102.41 106.115C102.525 105.685 102.685 105.28 102.89 104.9C103.1 104.52 103.35 104.172 103.64 103.857C103.93 103.537 104.253 103.262 104.608 103.032C104.968 102.797 105.353 102.617 105.763 102.492C106.173 102.362 106.603 102.297 107.053 102.297C107.378 102.297 107.693 102.325 107.998 102.38C108.308 102.43 108.613 102.52 108.913 102.65L108.005 110H107.315C107.14 110 107.02 109.955 106.955 109.865C106.895 109.775 106.865 109.665 106.865 109.535L107.008 107.997ZM115.801 102.402L115.726 102.972C115.716 103.067 115.689 103.16 115.644 103.25C115.604 103.335 115.556 103.412 115.501 103.482L111.121 108.957H114.864L114.744 110H109.396L109.464 109.445C109.469 109.38 109.491 109.302 109.531 109.212C109.571 109.122 109.624 109.04 109.689 108.965L114.091 103.452H110.409L110.536 102.402H115.801ZM120.047 103.257C119.732 103.257 119.442 103.322 119.177 103.452C118.912 103.582 118.677 103.762 118.472 103.992C118.267 104.217 118.092 104.485 117.947 104.795C117.802 105.1 117.69 105.43 117.61 105.785C118.38 105.69 118.997 105.582 119.462 105.462C119.927 105.337 120.285 105.205 120.535 105.065C120.785 104.92 120.95 104.765 121.03 104.6C121.11 104.435 121.15 104.262 121.15 104.082C121.15 103.992 121.13 103.9 121.09 103.805C121.05 103.705 120.985 103.615 120.895 103.535C120.81 103.455 120.697 103.39 120.557 103.34C120.417 103.285 120.247 103.257 120.047 103.257ZM122.162 108.597C121.907 108.862 121.657 109.09 121.412 109.28C121.167 109.465 120.917 109.62 120.662 109.745C120.412 109.87 120.147 109.96 119.867 110.015C119.592 110.075 119.295 110.105 118.975 110.105C118.54 110.105 118.15 110.033 117.805 109.887C117.46 109.742 117.167 109.537 116.927 109.272C116.687 109.002 116.502 108.677 116.372 108.297C116.242 107.917 116.177 107.492 116.177 107.022C116.177 106.632 116.217 106.245 116.297 105.86C116.382 105.47 116.502 105.1 116.657 104.75C116.817 104.4 117.01 104.075 117.235 103.775C117.465 103.475 117.725 103.217 118.015 103.002C118.31 102.782 118.632 102.61 118.982 102.485C119.337 102.36 119.717 102.297 120.122 102.297C120.507 102.297 120.84 102.352 121.12 102.463C121.4 102.572 121.63 102.712 121.81 102.882C121.99 103.052 122.122 103.24 122.207 103.445C122.297 103.65 122.342 103.845 122.342 104.03C122.342 104.36 122.275 104.665 122.14 104.945C122.005 105.22 121.757 105.47 121.397 105.695C121.037 105.915 120.542 106.107 119.912 106.272C119.282 106.437 118.472 106.57 117.482 106.67C117.482 106.725 117.48 106.78 117.475 106.835C117.475 106.885 117.475 106.937 117.475 106.992C117.475 107.662 117.62 108.175 117.91 108.53C118.205 108.88 118.647 109.055 119.237 109.055C119.477 109.055 119.69 109.03 119.875 108.98C120.065 108.93 120.232 108.87 120.377 108.8C120.527 108.725 120.657 108.645 120.767 108.56C120.882 108.47 120.985 108.39 121.075 108.32C121.17 108.245 121.257 108.182 121.337 108.132C121.417 108.082 121.497 108.057 121.577 108.057C121.672 108.057 121.757 108.1 121.832 108.185L122.162 108.597ZM125.267 104.517C125.467 104.092 125.682 103.725 125.912 103.415C126.147 103.1 126.392 102.855 126.647 102.68C126.902 102.5 127.165 102.392 127.435 102.357C127.705 102.317 127.98 102.357 128.26 102.477L128.02 103.76C127.37 103.5 126.795 103.595 126.295 104.045C125.8 104.495 125.397 105.307 125.087 106.482L124.667 110H123.362L124.277 102.395H124.937C125.242 102.395 125.395 102.545 125.395 102.845L125.267 104.517ZM136.932 103.332C136.822 103.307 136.712 103.292 136.602 103.287C136.497 103.277 136.392 103.272 136.287 103.272C135.987 103.272 135.697 103.322 135.417 103.422C135.137 103.517 134.874 103.652 134.629 103.827C134.384 104.002 134.162 104.212 133.962 104.457C133.762 104.697 133.589 104.962 133.444 105.252C133.304 105.542 133.194 105.852 133.114 106.182C133.034 106.507 132.994 106.842 132.994 107.187C132.994 108.392 133.379 108.995 134.149 108.995C134.394 108.995 134.634 108.92 134.869 108.77C135.104 108.615 135.327 108.402 135.537 108.132C135.752 107.857 135.949 107.535 136.129 107.165C136.309 106.79 136.469 106.38 136.609 105.935L136.932 103.332ZM136.422 107.997C136.242 108.317 136.047 108.607 135.837 108.867C135.632 109.127 135.412 109.35 135.177 109.535C134.947 109.715 134.702 109.855 134.442 109.955C134.187 110.055 133.922 110.105 133.647 110.105C133.347 110.105 133.074 110.048 132.829 109.932C132.584 109.812 132.374 109.64 132.199 109.415C132.029 109.185 131.897 108.905 131.802 108.575C131.707 108.24 131.659 107.857 131.659 107.427C131.659 106.977 131.714 106.54 131.824 106.115C131.939 105.685 132.099 105.28 132.304 104.9C132.514 104.52 132.764 104.172 133.054 103.857C133.344 103.537 133.667 103.262 134.022 103.032C134.382 102.797 134.767 102.617 135.177 102.492C135.587 102.362 136.017 102.297 136.467 102.297C136.792 102.297 137.107 102.325 137.412 102.38C137.722 102.43 138.027 102.52 138.327 102.65L137.419 110H136.729C136.554 110 136.434 109.955 136.369 109.865C136.309 109.775 136.279 109.665 136.279 109.535L136.422 107.997ZM142.343 109.062C142.708 109.062 143.038 108.962 143.333 108.762C143.633 108.562 143.888 108.297 144.098 107.967C144.313 107.632 144.478 107.247 144.593 106.812C144.708 106.377 144.765 105.922 144.765 105.447C144.765 104.747 144.625 104.222 144.345 103.872C144.07 103.517 143.673 103.34 143.153 103.34C142.783 103.34 142.448 103.44 142.148 103.64C141.853 103.835 141.6 104.097 141.39 104.427C141.18 104.757 141.018 105.14 140.903 105.575C140.788 106.01 140.73 106.465 140.73 106.94C140.73 107.64 140.868 108.17 141.143 108.53C141.418 108.885 141.818 109.062 142.343 109.062ZM142.215 110.105C141.8 110.105 141.42 110.035 141.075 109.895C140.73 109.75 140.433 109.542 140.183 109.272C139.933 109.002 139.738 108.672 139.598 108.282C139.458 107.892 139.388 107.447 139.388 106.947C139.388 106.307 139.488 105.705 139.688 105.14C139.888 104.575 140.163 104.082 140.513 103.662C140.863 103.237 141.273 102.902 141.743 102.657C142.218 102.412 142.728 102.29 143.273 102.29C143.688 102.29 144.068 102.362 144.413 102.507C144.758 102.647 145.055 102.852 145.305 103.122C145.555 103.392 145.75 103.722 145.89 104.112C146.03 104.502 146.1 104.945 146.1 105.44C146.1 106.075 146 106.675 145.8 107.24C145.6 107.805 145.325 108.3 144.975 108.725C144.63 109.15 144.22 109.487 143.745 109.737C143.27 109.983 142.76 110.105 142.215 110.105ZM155.579 103.617C155.539 103.677 155.499 103.722 155.459 103.752C155.419 103.777 155.369 103.79 155.309 103.79C155.239 103.79 155.162 103.762 155.077 103.707C154.997 103.652 154.897 103.592 154.777 103.527C154.662 103.457 154.519 103.395 154.349 103.34C154.179 103.28 153.974 103.25 153.734 103.25C153.509 103.25 153.304 103.282 153.119 103.347C152.934 103.407 152.774 103.492 152.639 103.602C152.509 103.712 152.407 103.842 152.332 103.992C152.262 104.137 152.227 104.292 152.227 104.457C152.227 104.692 152.304 104.88 152.459 105.02C152.614 105.16 152.809 105.282 153.044 105.387C153.279 105.487 153.532 105.585 153.802 105.68C154.072 105.775 154.324 105.895 154.559 106.04C154.794 106.185 154.989 106.37 155.144 106.595C155.299 106.82 155.377 107.112 155.377 107.472C155.377 107.822 155.307 108.157 155.167 108.477C155.032 108.797 154.834 109.08 154.574 109.325C154.319 109.565 154.009 109.757 153.644 109.902C153.284 110.048 152.879 110.12 152.429 110.12C151.944 110.12 151.514 110.035 151.139 109.865C150.769 109.69 150.467 109.467 150.232 109.197L150.562 108.687C150.607 108.622 150.654 108.572 150.704 108.537C150.759 108.502 150.829 108.485 150.914 108.485C150.994 108.485 151.074 108.52 151.154 108.59C151.234 108.66 151.334 108.74 151.454 108.83C151.574 108.915 151.724 108.992 151.904 109.062C152.089 109.132 152.322 109.167 152.602 109.167C152.847 109.167 153.067 109.13 153.262 109.055C153.462 108.98 153.629 108.88 153.764 108.755C153.904 108.63 154.009 108.485 154.079 108.32C154.154 108.15 154.192 107.97 154.192 107.78C154.192 107.525 154.114 107.322 153.959 107.172C153.804 107.022 153.609 106.897 153.374 106.797C153.139 106.697 152.887 106.605 152.617 106.52C152.347 106.43 152.094 106.317 151.859 106.182C151.624 106.042 151.429 105.862 151.274 105.642C151.119 105.422 151.042 105.13 151.042 104.765C151.042 104.445 151.104 104.137 151.229 103.842C151.359 103.542 151.544 103.277 151.784 103.047C152.024 102.817 152.314 102.635 152.654 102.5C152.999 102.36 153.387 102.29 153.817 102.29C154.272 102.29 154.672 102.367 155.017 102.522C155.367 102.672 155.667 102.877 155.917 103.137L155.579 103.617ZM160.55 103.257C160.235 103.257 159.945 103.322 159.68 103.452C159.415 103.582 159.18 103.762 158.975 103.992C158.77 104.217 158.595 104.485 158.45 104.795C158.305 105.1 158.193 105.43 158.113 105.785C158.883 105.69 159.5 105.582 159.965 105.462C160.43 105.337 160.788 105.205 161.038 105.065C161.288 104.92 161.453 104.765 161.533 104.6C161.613 104.435 161.653 104.262 161.653 104.082C161.653 103.992 161.633 103.9 161.593 103.805C161.553 103.705 161.488 103.615 161.398 103.535C161.313 103.455 161.2 103.39 161.06 103.34C160.92 103.285 160.75 103.257 160.55 103.257ZM162.665 108.597C162.41 108.862 162.16 109.09 161.915 109.28C161.67 109.465 161.42 109.62 161.165 109.745C160.915 109.87 160.65 109.96 160.37 110.015C160.095 110.075 159.798 110.105 159.478 110.105C159.043 110.105 158.653 110.033 158.308 109.887C157.963 109.742 157.67 109.537 157.43 109.272C157.19 109.002 157.005 108.677 156.875 108.297C156.745 107.917 156.68 107.492 156.68 107.022C156.68 106.632 156.72 106.245 156.8 105.86C156.885 105.47 157.005 105.1 157.16 104.75C157.32 104.4 157.513 104.075 157.738 103.775C157.968 103.475 158.228 103.217 158.518 103.002C158.813 102.782 159.135 102.61 159.485 102.485C159.84 102.36 160.22 102.297 160.625 102.297C161.01 102.297 161.343 102.352 161.623 102.463C161.903 102.572 162.133 102.712 162.313 102.882C162.493 103.052 162.625 103.24 162.71 103.445C162.8 103.65 162.845 103.845 162.845 104.03C162.845 104.36 162.778 104.665 162.643 104.945C162.508 105.22 162.26 105.47 161.9 105.695C161.54 105.915 161.045 106.107 160.415 106.272C159.785 106.437 158.975 106.57 157.985 106.67C157.985 106.725 157.983 106.78 157.978 106.835C157.978 106.885 157.978 106.937 157.978 106.992C157.978 107.662 158.123 108.175 158.413 108.53C158.708 108.88 159.15 109.055 159.74 109.055C159.98 109.055 160.193 109.03 160.378 108.98C160.568 108.93 160.735 108.87 160.88 108.8C161.03 108.725 161.16 108.645 161.27 108.56C161.385 108.47 161.488 108.39 161.578 108.32C161.673 108.245 161.76 108.182 161.84 108.132C161.92 108.082 162 108.057 162.08 108.057C162.175 108.057 162.26 108.1 162.335 108.185L162.665 108.597ZM170.735 102.402L169.82 110H169.16C168.835 110 168.673 109.84 168.673 109.52L168.785 108.132C168.385 108.782 167.933 109.275 167.428 109.61C166.928 109.94 166.413 110.105 165.883 110.105C165.563 110.105 165.28 110.042 165.035 109.917C164.79 109.787 164.59 109.6 164.435 109.355C164.285 109.11 164.183 108.81 164.128 108.455C164.073 108.1 164.075 107.692 164.135 107.232L164.705 102.402H166.033L165.463 107.232C165.393 107.827 165.428 108.27 165.568 108.56C165.713 108.85 165.983 108.995 166.378 108.995C166.608 108.995 166.845 108.932 167.09 108.807C167.335 108.682 167.57 108.505 167.795 108.275C168.02 108.045 168.23 107.767 168.425 107.442C168.625 107.112 168.795 106.747 168.935 106.347L169.408 102.402H170.735ZM180.525 103.332C180.415 103.307 180.305 103.292 180.195 103.287C180.09 103.277 179.985 103.272 179.88 103.272C179.58 103.272 179.29 103.322 179.01 103.422C178.73 103.517 178.468 103.652 178.223 103.827C177.978 104.002 177.755 104.212 177.555 104.457C177.355 104.697 177.183 104.962 177.038 105.252C176.898 105.542 176.788 105.852 176.708 106.182C176.628 106.507 176.588 106.842 176.588 107.187C176.588 108.392 176.973 108.995 177.743 108.995C177.988 108.995 178.228 108.92 178.463 108.77C178.698 108.615 178.92 108.402 179.13 108.132C179.345 107.857 179.543 107.535 179.723 107.165C179.903 106.79 180.063 106.38 180.203 105.935L180.525 103.332ZM180.015 107.997C179.835 108.317 179.64 108.607 179.43 108.867C179.225 109.127 179.005 109.35 178.77 109.535C178.54 109.715 178.295 109.855 178.035 109.955C177.78 110.055 177.515 110.105 177.24 110.105C176.94 110.105 176.668 110.048 176.423 109.932C176.178 109.812 175.968 109.64 175.793 109.415C175.623 109.185 175.49 108.905 175.395 108.575C175.3 108.24 175.253 107.857 175.253 107.427C175.253 106.977 175.308 106.54 175.418 106.115C175.533 105.685 175.693 105.28 175.898 104.9C176.108 104.52 176.358 104.172 176.648 103.857C176.938 103.537 177.26 103.262 177.615 103.032C177.975 102.797 178.36 102.617 178.77 102.492C179.18 102.362 179.61 102.297 180.06 102.297C180.385 102.297 180.7 102.325 181.005 102.38C181.315 102.43 181.62 102.52 181.92 102.65L181.013 110H180.323C180.148 110 180.028 109.955 179.963 109.865C179.903 109.775 179.873 109.665 179.873 109.535L180.015 107.997ZM183.019 110L184.362 98.9525H185.674L184.332 110H183.019ZM192.043 108.635C191.783 108.92 191.536 109.157 191.301 109.347C191.066 109.537 190.831 109.69 190.596 109.805C190.361 109.915 190.116 109.992 189.861 110.038C189.611 110.083 189.341 110.105 189.051 110.105C188.611 110.105 188.221 110.03 187.881 109.88C187.546 109.73 187.263 109.52 187.033 109.25C186.808 108.975 186.636 108.647 186.516 108.267C186.401 107.882 186.343 107.46 186.343 107C186.343 106.385 186.438 105.795 186.628 105.23C186.823 104.665 187.093 104.165 187.438 103.73C187.783 103.295 188.193 102.947 188.668 102.687C189.148 102.427 189.671 102.297 190.236 102.297C190.741 102.297 191.163 102.387 191.503 102.567C191.843 102.742 192.141 103 192.396 103.34L191.976 103.842C191.941 103.882 191.901 103.915 191.856 103.94C191.816 103.965 191.768 103.977 191.713 103.977C191.643 103.977 191.573 103.947 191.503 103.887C191.438 103.822 191.351 103.752 191.241 103.677C191.131 103.597 190.993 103.527 190.828 103.467C190.668 103.402 190.461 103.37 190.206 103.37C189.861 103.37 189.536 103.465 189.231 103.655C188.926 103.84 188.658 104.095 188.428 104.42C188.198 104.745 188.016 105.13 187.881 105.575C187.751 106.02 187.686 106.497 187.686 107.007C187.686 107.317 187.721 107.6 187.791 107.855C187.861 108.105 187.966 108.32 188.106 108.5C188.246 108.675 188.416 108.812 188.616 108.912C188.821 109.007 189.058 109.055 189.328 109.055C189.663 109.055 189.943 109.005 190.168 108.905C190.398 108.805 190.591 108.697 190.746 108.582C190.901 108.462 191.031 108.352 191.136 108.252C191.246 108.152 191.353 108.102 191.458 108.102C191.553 108.102 191.638 108.145 191.713 108.23L192.043 108.635ZM198.265 103.332C198.155 103.307 198.045 103.292 197.935 103.287C197.83 103.277 197.725 103.272 197.62 103.272C197.32 103.272 197.03 103.322 196.75 103.422C196.47 103.517 196.207 103.652 195.962 103.827C195.717 104.002 195.495 104.212 195.295 104.457C195.095 104.697 194.922 104.962 194.777 105.252C194.637 105.542 194.527 105.852 194.447 106.182C194.367 106.507 194.327 106.842 194.327 107.187C194.327 108.392 194.712 108.995 195.482 108.995C195.727 108.995 195.967 108.92 196.202 108.77C196.437 108.615 196.66 108.402 196.87 108.132C197.085 107.857 197.282 107.535 197.462 107.165C197.642 106.79 197.802 106.38 197.942 105.935L198.265 103.332ZM197.755 107.997C197.575 108.317 197.38 108.607 197.17 108.867C196.965 109.127 196.745 109.35 196.51 109.535C196.28 109.715 196.035 109.855 195.775 109.955C195.52 110.055 195.255 110.105 194.98 110.105C194.68 110.105 194.407 110.048 194.162 109.932C193.917 109.812 193.707 109.64 193.532 109.415C193.362 109.185 193.23 108.905 193.135 108.575C193.04 108.24 192.992 107.857 192.992 107.427C192.992 106.977 193.047 106.54 193.157 106.115C193.272 105.685 193.432 105.28 193.637 104.9C193.847 104.52 194.097 104.172 194.387 103.857C194.677 103.537 195 103.262 195.355 103.032C195.715 102.797 196.1 102.617 196.51 102.492C196.92 102.362 197.35 102.297 197.8 102.297C198.125 102.297 198.44 102.325 198.745 102.38C199.055 102.43 199.36 102.52 199.66 102.65L198.752 110H198.062C197.887 110 197.767 109.955 197.702 109.865C197.642 109.775 197.612 109.665 197.612 109.535L197.755 107.997ZM202.633 104.322C203.038 103.652 203.496 103.147 204.006 102.807C204.516 102.462 205.041 102.29 205.581 102.29C205.901 102.29 206.181 102.355 206.421 102.485C206.666 102.61 206.863 102.795 207.013 103.04C207.168 103.285 207.273 103.587 207.328 103.947C207.383 104.302 207.383 104.707 207.328 105.162L206.758 110H205.431L206.001 105.162C206.071 104.562 206.033 104.12 205.888 103.835C205.743 103.545 205.476 103.4 205.086 103.4C204.846 103.4 204.601 103.465 204.351 103.595C204.106 103.725 203.868 103.91 203.638 104.15C203.408 104.39 203.193 104.68 202.993 105.02C202.798 105.355 202.631 105.73 202.491 106.145L202.056 110H200.721L201.636 102.395H202.296C202.596 102.395 202.746 102.545 202.746 102.845L202.633 104.322ZM214.367 108.635C214.107 108.92 213.86 109.157 213.625 109.347C213.39 109.537 213.155 109.69 212.92 109.805C212.685 109.915 212.44 109.992 212.185 110.038C211.935 110.083 211.665 110.105 211.375 110.105C210.935 110.105 210.545 110.03 210.205 109.88C209.87 109.73 209.587 109.52 209.357 109.25C209.132 108.975 208.96 108.647 208.84 108.267C208.725 107.882 208.667 107.46 208.667 107C208.667 106.385 208.762 105.795 208.952 105.23C209.147 104.665 209.417 104.165 209.762 103.73C210.107 103.295 210.517 102.947 210.992 102.687C211.472 102.427 211.995 102.297 212.56 102.297C213.065 102.297 213.487 102.387 213.827 102.567C214.167 102.742 214.465 103 214.72 103.34L214.3 103.842C214.265 103.882 214.225 103.915 214.18 103.94C214.14 103.965 214.092 103.977 214.037 103.977C213.967 103.977 213.897 103.947 213.827 103.887C213.762 103.822 213.675 103.752 213.565 103.677C213.455 103.597 213.317 103.527 213.152 103.467C212.992 103.402 212.785 103.37 212.53 103.37C212.185 103.37 211.86 103.465 211.555 103.655C211.25 103.84 210.982 104.095 210.752 104.42C210.522 104.745 210.34 105.13 210.205 105.575C210.075 106.02 210.01 106.497 210.01 107.007C210.01 107.317 210.045 107.6 210.115 107.855C210.185 108.105 210.29 108.32 210.43 108.5C210.57 108.675 210.74 108.812 210.94 108.912C211.145 109.007 211.382 109.055 211.652 109.055C211.987 109.055 212.267 109.005 212.492 108.905C212.722 108.805 212.915 108.697 213.07 108.582C213.225 108.462 213.355 108.352 213.46 108.252C213.57 108.152 213.677 108.102 213.782 108.102C213.877 108.102 213.962 108.145 214.037 108.23L214.367 108.635ZM219.202 103.257C218.887 103.257 218.597 103.322 218.332 103.452C218.067 103.582 217.832 103.762 217.627 103.992C217.422 104.217 217.247 104.485 217.102 104.795C216.957 105.1 216.845 105.43 216.765 105.785C217.535 105.69 218.152 105.582 218.617 105.462C219.082 105.337 219.44 105.205 219.69 105.065C219.94 104.92 220.105 104.765 220.185 104.6C220.265 104.435 220.305 104.262 220.305 104.082C220.305 103.992 220.285 103.9 220.245 103.805C220.205 103.705 220.14 103.615 220.05 103.535C219.965 103.455 219.852 103.39 219.712 103.34C219.572 103.285 219.402 103.257 219.202 103.257ZM221.317 108.597C221.062 108.862 220.812 109.09 220.567 109.28C220.322 109.465 220.072 109.62 219.817 109.745C219.567 109.87 219.302 109.96 219.022 110.015C218.747 110.075 218.45 110.105 218.13 110.105C217.695 110.105 217.305 110.033 216.96 109.887C216.615 109.742 216.322 109.537 216.082 109.272C215.842 109.002 215.657 108.677 215.527 108.297C215.397 107.917 215.332 107.492 215.332 107.022C215.332 106.632 215.372 106.245 215.452 105.86C215.537 105.47 215.657 105.1 215.812 104.75C215.972 104.4 216.165 104.075 216.39 103.775C216.62 103.475 216.88 103.217 217.17 103.002C217.465 102.782 217.787 102.61 218.137 102.485C218.492 102.36 218.872 102.297 219.277 102.297C219.662 102.297 219.995 102.352 220.275 102.463C220.555 102.572 220.785 102.712 220.965 102.882C221.145 103.052 221.277 103.24 221.362 103.445C221.452 103.65 221.497 103.845 221.497 104.03C221.497 104.36 221.43 104.665 221.295 104.945C221.16 105.22 220.912 105.47 220.552 105.695C220.192 105.915 219.697 106.107 219.067 106.272C218.437 106.437 217.627 106.57 216.637 106.67C216.637 106.725 216.635 106.78 216.63 106.835C216.63 106.885 216.63 106.937 216.63 106.992C216.63 107.662 216.775 108.175 217.065 108.53C217.36 108.88 217.802 109.055 218.392 109.055C218.632 109.055 218.845 109.03 219.03 108.98C219.22 108.93 219.387 108.87 219.532 108.8C219.682 108.725 219.812 108.645 219.922 108.56C220.037 108.47 220.14 108.39 220.23 108.32C220.325 108.245 220.412 108.182 220.492 108.132C220.572 108.082 220.652 108.057 220.732 108.057C220.827 108.057 220.912 108.1 220.987 108.185L221.317 108.597Z" fill="#77BB88"/>
<g clip-path="url(#clip0)">
<path d="M157.712 79.6387C157.367 78.5161 158.087 77.4472 159.321 77.251C163.366 76.6085 163.514 74.5223 162.895 69.1624C162.287 63.8937 161.454 56.6776 171.966 54.8225C179.217 53.5433 183.471 49.5282 185.325 47.3137L183.323 45.8471C181.593 47.9929 177.292 52.2824 169.752 53.6126C159.24 55.4677 160.073 62.6838 160.681 67.9526C161.3 73.3126 161.152 75.3987 157.108 76.0412C155.873 76.2372 155.152 77.3061 155.498 78.4289C155.644 78.9044 155.959 79.3135 156.366 79.612C156.811 79.938 157.368 80.1289 157.938 80.1341C157.843 79.9794 157.766 79.8136 157.712 79.6387Z" fill="#56422F"/>
<path d="M189.861 12.6906L189.873 12.69L189.873 12.69C190.134 12.6812 210.188 12.006 209.678 12.0232C213.031 11.9102 213.675 15.08 213.689 15.152L217.216 34.1011C217.264 34.393 217.45 36.2987 214.351 37.4883L185.171 48.6887L181.829 46.0796L186.968 16.1735C186.968 16.1735 186.968 16.1734 186.968 16.1732C187.54 12.8463 189.689 12.6971 189.861 12.6906Z" fill="#B7D8B7"/>
<path d="M213.69 15.1527C213.675 15.0807 213.031 11.9111 209.678 12.0239C209.678 12.0239 209.677 12.0239 209.677 12.0239L204.382 12.2023C194.698 15.9705 188.331 25.6153 189.455 36.1335C189.832 39.6671 191.016 42.9255 192.81 45.7574L214.351 37.489C217.45 36.2995 217.264 34.3937 217.216 34.1018L213.69 15.1527Z" fill="#E9F5E9"/>
<path d="M203.724 24.6099L212.953 13.5436C212.626 13.0933 212.163 12.6479 211.516 12.3562L202.254 23.4618L188.857 13.003C188.434 13.2363 187.952 13.6449 187.564 14.3589L201.059 24.8946L182.775 46.8185L184.245 47.9665L202.529 26.0426L216.019 36.5739C216.67 36.0571 216.98 35.5169 217.122 35.0699L203.724 24.6099Z" fill="#56422F"/>
</g>
</g>
<defs>
<filter id="filter0_d" x="-9" y="0" width="290" height="154" filterUnits="userSpaceOnUse" color-interpolation-filters="sRGB">
<feFlood flood-opacity="0" result="BackgroundImageFix"/>
<feColorMatrix in="SourceAlpha" type="matrix" values="0 0 0 0 0 0 0 0 0 0 0 0 0 0 0 0 0 0 127 0"/>
<feOffset dy="4"/>
<feGaussianBlur stdDeviation="7"/>
<feColorMatrix type="matrix" values="0 0 0 0 0 0 0 0 0 0 0 0 0 0 0 0 0 0 0.25 0"/>
<feBlend mode="normal" in2="BackgroundImageFix" result="effect1_dropShadow"/>
<feBlend mode="normal" in="SourceGraphic" in2="effect1_dropShadow" result="shape"/>
</filter>
<clipPath id="clip0">
<rect width="63" height="61" fill="white" transform="translate(152 16.691) rotate(-6.09665)"/>
</clipPath>
</defs>
</svg>
