<svg width="210" height="182" viewBox="0 0 210 182" fill="none" xmlns="http://www.w3.org/2000/svg">
<g clip-path="url(#clip0)">
<path d="M208.668 141.144L108.203 47.8553C106.42 46.1999 103.529 46.1999 101.746 47.8553L1.2816 141.144C-0.470669 142.828 -0.420579 145.512 1.39377 147.14C3.16359 148.727 5.96903 148.727 7.73885 147.14L104.97 56.8535L202.201 147.148C204.015 148.775 206.906 148.729 208.659 147.044C210.368 145.401 210.368 142.795 208.659 141.152L208.668 141.144Z" fill="#FFC107"/>
<path d="M205.434 148.386C204.222 148.388 203.059 147.943 202.201 147.148L104.97 56.8534L7.73886 147.148C5.92494 148.775 3.03388 148.728 1.28161 147.044C-0.427853 145.4 -0.427853 142.795 1.28161 141.152L101.746 47.8636C103.529 46.2082 106.42 46.2082 108.203 47.8636L208.668 141.152C210.448 142.81 210.443 145.495 208.657 147.149C207.801 147.941 206.643 148.386 205.434 148.386Z" fill="#62B076"/>
</g>
<defs>
<clipPath id="clip0">
<rect width="210" height="195" fill="white"/>
</clipPath>
</defs>
</svg>
